<?xml version="1.0" encoding="utf-8"?>
<!-- Generator: Adobe Illustrator 17.0.0, SVG Export Plug-In . SVG Version: 6.00 Build 0)  -->
<!DOCTYPE svg PUBLIC "-//W3C//DTD SVG 1.1//EN" "http://www.w3.org/Graphics/SVG/1.1/DTD/svg11.dtd">
<svg version="1.1" xmlns="http://www.w3.org/2000/svg" xmlns:xlink="http://www.w3.org/1999/xlink" x="0px" y="0px" width="1984px"
	 height="496px" viewBox="0 0 1984 496" enable-background="new 0 0 1984 496" xml:space="preserve">
<g id="Layer_2">
</g>
<g id="Layer_1">
	<g>
		<path fill="#3A1301" d="M2036.348-1764.381c-11.287-3.796-22.937-4.652-34.727-4.137c-3.688,0.161-6.385,2.07-8.875,4.958
			c-10.825,12.554-11.466,27.143-9.111,42.446c0.715,4.645,1.692,9.276,2.008,13.949c0.313,4.64,2.823,7.048,6.928,7.869
			c6.903,1.381,13.938,2.14,20.8,3.682c6.017,1.352,11.873,3.419,17.605,5.959c-39.063-4.664-77.914-4.7-117.103,0.307
			c1.249-0.816,2.403-1.876,3.764-2.406c7.237-2.82,14.388-5.988,21.829-8.129c11.576-3.332,18.874-10.42,20.038-22.376
			c0.96-9.857,1.802-20.013,0.496-29.741c-2.636-19.642-17.409-28.95-37.253-24.281c-6.648,1.564-12.942,4.645-19.378,7.083
			c-1.313,0.497-2.541,1.221-3.808,1.84c-0.263-0.392-0.525-0.785-0.788-1.177c4.373-3.067,8.745-6.134,13.288-9.32
			c-2.589-0.961-5.24-1.944-8.115-3.012c-3.392,4.708-7.502,8.209-14.36,7.813c2.496-5.378,6.79-7.602,11.994-8.676
			c0.091-0.455,0.182-0.911,0.273-1.366c-6.361-3.108-12.723-6.217-19.085-9.325c0.138-0.333,0.276-0.665,0.413-0.998
			c3.244,1.055,6.487,2.109,10.383,3.376c-1.651-5.301-3.077-9.879-4.503-14.457c0.503-0.244,1.007-0.487,1.51-0.73
			c1.08,8.413,5.688,14.57,12.577,18.328c5.139,2.803,11.023,5.067,16.783,5.708c8.527,0.948,17.238,0.245,27.262,0.245
			c-4.29-5.166-7.763-9.349-10.995-13.241c-2.501,2.97-4.763,5.656-7.025,8.342c-0.643-0.517-1.286-1.034-1.929-1.551
			c2.15-2.822,4.299-5.645,6.726-8.831c-3.659-5.124-8-10.795-11.889-16.762c-3.893-5.973-6.979-12.362-7.233-19.388
			c5.438,8.555,10.967,17.254,16.309,25.657c2.782-6.254,4.847-12.071,7.862-17.346c3.112-5.444,7.149-10.359,11.6-15.059
			c-1.594,2.746-3.291,5.438-4.761,8.249c-3.236,6.188-6.789,12.263-9.392,18.715c-2.14,5.304-0.741,10.286,3.973,14.194
			c5.477,4.539,10.709,9.373,16.744,13.674c3.482-14.413,2.498-28.069-2.084-41.829c1.056,2.182,2.268,4.304,3.126,6.561
			c0.884,2.323,1.499,4.758,2.093,7.178c0.621,2.53,1.075,5.1,1.762,8.424c1.28-1.922,2.116-3.179,2.683-4.029
			c-0.95,6.444-1.91,13.32-2.995,20.177c-0.599,3.788,0.143,6.503,2.963,9.749c4.153,4.778,6.756,10.907,9.987,16.48
			c1.021,1.76,1.936,3.582,3.113,5.773c3.951-4.764,7.662-9.18,11.273-13.677c0.372-0.463,0.154-1.404,0.199-2.124
			c0.448-7.126,0.965-14.249,1.279-21.381c0.06-1.371-0.216-3.399-1.119-4.067c-6.524-4.825-9.121-11.655-10.45-19.224
			c-0.674-3.835-1.297-7.679-1.944-11.519c0.383-0.123,0.765-0.247,1.148-0.37c0.837,2.23,1.794,4.424,2.484,6.698
			c1.234,4.068,1.825,8.407,3.585,12.217c1.693,3.663,4.526,6.799,7.352,10.879c4.959-9.494,9.195-17.605,13.432-25.716
			c0.465,0.183,0.93,0.366,1.395,0.549c-6.545,15.44-14.984,30.426-12.229,48.541c5.689-2.916,11.131-5.959,16.792-8.519
			c3.798-1.718,6.518-3.859,8.039-7.995c2.009-5.466,5.469-10.133,10.522-13.51c-1.085,1.776-2.169,3.553-3.367,5.514
			c2.483-0.687,4.661-1.289,6.84-1.892c0.187,0.643,0.374,1.286,0.561,1.93c-2.706,0.886-5.413,1.772-8.119,2.657
			c-0.248-0.388-0.497-0.775-0.745-1.163c-1.733,3.326-3.466,6.651-5.687,10.913c5.164-0.88,9.307-1.586,13.449-2.292
			c0.078,0.294,0.155,0.587,0.233,0.881c-2.589,1.143-5.179,2.286-7.478,3.3c2.333,2.951,4.535,5.737,7.16,9.056
			c0.597-0.15,1.954-0.49,3.346-0.839c-1.748-2.733-3.446-5.387-5.144-8.042c4.321,0.031,6.301,2.518,7.114,5.64
			c0.258,0.992-1.234,3.058-2.426,3.693c-3.411,1.819-7.079,3.156-10.646,4.683c0.011,0.408,0.021,0.817,0.032,1.225
			c7.148,2.263,14.297,4.526,21.445,6.789c-0.089,0.313-0.179,0.625-0.269,0.938c-3.225-0.818-6.45-1.636-9.675-2.454
			L2036.348-1764.381z M2020.528-1783.034c-5.802,1.932-11.171,4.597-16.708,9.458c9.411,0.273,17.671,2.784,25.172-1.602
			c-1.964-2.958-3.937-5.928-6.055-9.117c-0.549,0.298-1.55,0.842-2.551,1.385L2020.528-1783.034z"/>
		<path fill="#2A9C2A" stroke="#2A9C2A" stroke-miterlimit="10" d="M1917.667-1815.821c-4.773,5.808-13.623,7.638-19.833,4.345
			C1902.343-1816.81,1909.345-1818.417,1917.667-1815.821z"/>
		<path fill="#2A9C2A" stroke="#2A9C2A" stroke-miterlimit="10" d="M1886.607-1787.211c-1.915,7.68-7.638,12.822-14.954,13.701
			C1872.137-1780.152,1878.584-1786.203,1886.607-1787.211z"/>
		<path fill="#2A9C2A" stroke="#2A9C2A" stroke-miterlimit="10" d="M1911.839-1823.04c-7.672-0.866-13.288-5.826-15.37-13.29
			C1902.64-1836.999,1909.379-1831.296,1911.839-1823.04z"/>
		<path fill="#2A9C2A" stroke="#2A9C2A" stroke-miterlimit="10" d="M1871.631-1820.502c8.092,1.48,13.482,6.469,14.948,13.551
			C1879.721-1806.97,1872.983-1812.938,1871.631-1820.502z"/>
		<path fill="#2A9C2A" stroke="#2A9C2A" stroke-miterlimit="10" d="M2039.245-1803.122c4.052-6.139,11.13-8.923,17.373-7.044
			C2053.701-1804.526,2046.578-1801.529,2039.245-1803.122z"/>
		<path fill="#2A9C2A" stroke="#2A9C2A" stroke-miterlimit="10" d="M2037.068-1839.887c-4.358,6.149-10.432,8.525-17.254,6.989
			C2022.418-1838.572,2029.457-1841.522,2037.068-1839.887z"/>
		<path fill="#2A9C2A" stroke="#2A9C2A" stroke-miterlimit="10" d="M1999.132-1835.57c-3.185,6.045-9.448,8.675-17.142,7.47
			C1984.474-1833.646,1990.911-1836.529,1999.132-1835.57z"/>
		<path fill="#2A9C2A" stroke="#2A9C2A" stroke-miterlimit="10" d="M2008.838-1813.362c3.634-6.071,9.681-8.59,17.022-7.347
			C2023.854-1815.203,2016.871-1812.094,2008.838-1813.362z"/>
		<path fill="#2A9C2A" stroke="#2A9C2A" stroke-miterlimit="10" d="M1881.304-1840.49c6.523,0.757,10.876,4.694,12.309,10.838
			C1887.715-1829.952,1883.41-1833.646,1881.304-1840.49z"/>
		<path fill="#2A9C2A" stroke="#2A9C2A" stroke-miterlimit="10" d="M1979.964-1830.581c-0.372-6.594,2.726-11.575,8.461-13.953
			C1989.126-1838.445,1986.306-1833.644,1979.964-1830.581z"/>
		<path fill="#2A9C2A" stroke="#2A9C2A" stroke-miterlimit="10" d="M1880.127-1798.164c-6.344-0.239-10.593-2.86-13.64-7.935
			C1872.163-1807.502,1877.604-1804.407,1880.127-1798.164z"/>
		<path fill="#2A9C2A" stroke="#2A9C2A" stroke-miterlimit="10" d="M1936.166-1849.924c6.254,0.837,10.094,4.469,11.479,10.509
			C1941.963-1839.842,1937.941-1843.433,1936.166-1849.924z"/>
		<path fill="#2A9C2A" stroke="#2A9C2A" stroke-miterlimit="10" d="M1998.914-1740.028c-5.631-3.702-7.677-8.389-7.637-14.406
			C1996.73-1752.512,1999.573-1747.332,1998.914-1740.028z"/>
		<path fill="#2A9C2A" stroke="#2A9C2A" stroke-miterlimit="10" d="M1911.203-1855.834c4.337,3.816,5.398,9.04,3.035,14.934
			C1909.862-1844.072,1908.559-1850.484,1911.203-1855.834z"/>
		<path fill="#2A9C2A" stroke="#2A9C2A" stroke-miterlimit="10" d="M1924.258-1785.383c-5.779-2.138-9.248-5.537-10.489-11.224
			C1919.343-1796.159,1923.247-1792.162,1924.258-1785.383z"/>
		<path fill="#2A9C2A" stroke="#2A9C2A" stroke-miterlimit="10" d="M1910.805-1803.367c-1.257,6.141-4.621,9.596-9.994,11.492
			C1900.393-1797.105,1903.888-1801.235,1910.805-1803.367z"/>
		<path fill="#2A9C2A" stroke="#2A9C2A" stroke-miterlimit="10" d="M2032.675-1821.599c2.634-5.222,7.127-7.522,12.984-6.899
			C2043.505-1823.556,2039.373-1821.284,2032.675-1821.599z"/>
		<path fill="#2A9C2A" stroke="#2A9C2A" stroke-miterlimit="10" d="M1881.656-1756.292c0.763-6.401,3.854-10.143,9.163-11.42
			C1890.535-1761.919,1887.612-1758.162,1881.656-1756.292z"/>
		<path fill="#2A9C2A" stroke="#2A9C2A" stroke-miterlimit="10" d="M1900.841-1761.24c-0.339,5.627-3.099,9.243-8.756,11.473
			C1891.3-1754.906,1895.191-1760.005,1900.841-1761.24z"/>
		<path fill="#2A9C2A" stroke="#2A9C2A" stroke-miterlimit="10" d="M1995.113-1855.471c3.42,4.302,3.525,9.557,0.287,14.349
			C1992.008-1845.4,1991.904-1850.627,1995.113-1855.471z"/>
		<path fill="#2A9C2A" stroke="#2A9C2A" stroke-miterlimit="10" d="M2039.987-1811.69c3.404-4.757,6.528-6.056,12.629-5.502
			C2051.014-1812.758,2046.32-1810.626,2039.987-1811.69z"/>
		<path fill="#2A9C2A" stroke="#2A9C2A" stroke-miterlimit="10" d="M2061.052-1795.103c-3.068,4.82-7.064,6.479-12.62,5.497
			C2050.498-1793.992,2054.428-1795.77,2061.052-1795.103z"/>
		<path fill="#2A9C2A" stroke="#2A9C2A" stroke-miterlimit="10" d="M2048.225-1798.636c-4.236,4.865-8.344,6.752-14.352,5.739
			C2037.504-1797.73,2041.785-1799.247,2048.225-1798.636z"/>
		<path fill="#2A9C2A" stroke="#2A9C2A" stroke-miterlimit="10" d="M1955.632-1815.035c-5.353,1.426-9.539,0.572-13.219-3.057
			C1946.967-1820.432,1951.212-1819.525,1955.632-1815.035z"/>
		<path fill="#2A9C2A" stroke="#2A9C2A" stroke-miterlimit="10" d="M2031.851-1808.391c0.518-5.757,3.06-8.865,7.802-11.123
			C2039.386-1814.086,2036.704-1811.088,2031.851-1808.391z"/>
		<path fill="#2A9C2A" stroke="#2A9C2A" stroke-miterlimit="10" d="M1932.666-1839.891c4.634,2.425,6.641,5.724,6.672,10.417
			C1934.842-1830.885,1933.052-1833.557,1932.666-1839.891z"/>
		<path fill="#2A9C2A" stroke="#2A9C2A" stroke-miterlimit="10" d="M2009.707-1829.676c0.534-5.518,3.088-8.58,7.82-10.861
			C2017.136-1835.088,2014.681-1831.932,2009.707-1829.676z"/>
		<path fill="#2A9C2A" stroke="#2A9C2A" stroke-miterlimit="10" d="M1975.447-1830.607c-4.794-0.221-8.032-2.302-10.209-6.437
			C1969.962-1837.769,1973.102-1835.814,1975.447-1830.607z"/>
		<path fill="#2A9C2A" stroke="#2A9C2A" stroke-miterlimit="10" d="M1965.854-1851.394c4.759,2.768,6.715,6.121,6.869,11.38
			C1968.098-1842.481,1966.167-1845.841,1965.854-1851.394z"/>
		<path fill="#2A9C2A" stroke="#2A9C2A" stroke-miterlimit="10" d="M1952.763-1830.934c-0.652-5.478,0.901-8.953,4.692-12.187
			C1958.465-1837.941,1957.069-1834.417,1952.763-1830.934z"/>
		<path fill="#2A9C2A" stroke="#2A9C2A" stroke-miterlimit="10" d="M1950.844-1842.07c-0.454-5.268,0.877-8.836,5.216-11.688
			C1956.776-1848.702,1955.162-1845.3,1950.844-1842.07z"/>
		<path fill="#2A9C2A" stroke="#2A9C2A" stroke-miterlimit="10" d="M2028.558-1815.086c-0.496-3.822-0.993-7.645-1.489-11.467
			c4.624,2.505,5.203,5.829,3.179,11.19C2029.685-1815.271,2029.122-1815.178,2028.558-1815.086z"/>
		<path fill="#2A9C2A" stroke="#2A9C2A" stroke-miterlimit="10" d="M1977.332-1837.719c-2.855-3.966-2.484-7.78-0.503-11.828
			C1979.978-1846.327,1980.169-1842.386,1977.332-1837.719z"/>
		<path fill="#2A9C2A" stroke="#2A9C2A" stroke-miterlimit="10" d="M2048.914-1759.749c2.056,2.702,4.112,5.404,6.169,8.106
			c-0.638,0.504-1.277,1.008-1.915,1.512c-2.152-2.627-4.304-5.254-6.457-7.881
			C2047.446-1758.591,2048.18-1759.17,2048.914-1759.749z"/>
		<path fill="#2A9C2A" stroke="#2A9C2A" stroke-miterlimit="10" d="M2044.189-1773.123c-3.137,1.321-6.273,2.642-9.41,3.963
			c-0.229-0.516-0.457-1.033-0.686-1.549c2.162-3.321,5.448-4.315,9.291-4.154
			C2043.652-1774.284,2043.92-1773.703,2044.189-1773.123z"/>
		<path fill="#2A9C2A" stroke="#2A9C2A" stroke-miterlimit="10" d="M2053.61-1768.728c-3.149,1.218-6.297,2.436-9.446,3.655
			c-0.311-0.79-0.622-1.579-0.933-2.369c3.158-1.283,6.316-2.566,9.474-3.849C2053.007-1770.436,2053.309-1769.582,2053.61-1768.728
			z"/>
		<path fill="#2A9C2A" stroke="#2A9C2A" stroke-miterlimit="10" d="M1975.255-1793.126c2.196-2.617,4.391-5.234,6.587-7.852
			c0.628,0.506,1.255,1.012,1.883,1.518c-2.103,2.723-4.206,5.445-6.308,8.168
			C1976.696-1791.903,1975.975-1792.515,1975.255-1793.126z"/>
		<path fill="#2A9C2A" stroke="#2A9C2A" stroke-miterlimit="10" d="M2018.902-1751.833c0.562-3.408,1.124-6.816,1.686-10.224
			c0.594,0.102,1.187,0.205,1.781,0.307c1.465,3.77,0.591,7.122-1.894,10.185
			C2019.951-1751.654,2019.426-1751.744,2018.902-1751.833z"/>
		<path fill="#2A9C2A" stroke="#2A9C2A" stroke-miterlimit="10" d="M2041.363-1785.6c2.126,2.591,4.253,5.181,6.99,8.516
			c-5.295-0.259-7.146-2.306-8.166-7.519C2040.579-1784.935,2040.971-1785.267,2041.363-1785.6z"/>
		<path fill="#2A9C2A" stroke="#2A9C2A" stroke-miterlimit="10" d="M1923.086-1807.601c-3.152,3.41-5.6,3.954-10.2,1.068
			c3.259-0.835,6.519-1.67,9.778-2.505C1922.805-1808.559,1922.945-1808.08,1923.086-1807.601z"/>
		<path fill="#2A9C2A" stroke="#2A9C2A" stroke-miterlimit="10" d="M1928.649-1774.173c4.183,1.406,6.022,4.308,6.868,8.25
			C1931.082-1766.744,1929.217-1768.923,1928.649-1774.173z"/>
		<path fill="#2A9C2A" stroke="#2A9C2A" stroke-miterlimit="10" d="M1947.036-1759.492c-2.083-2.707-4.166-5.414-6.248-8.121
			c0.66-0.518,1.32-1.036,1.98-1.555c2.139,2.657,4.278,5.315,6.416,7.972C1948.468-1760.628,1947.752-1760.06,1947.036-1759.492z"
			/>
		<path fill="#2A9C2A" stroke="#2A9C2A" stroke-miterlimit="10" d="M2036.213-1764.493c1.817,2.847,5.816,4.471,4.068,9.557
			c-1.795-2.241-3.701-4.409-5.279-6.795c-0.27-0.408,0.862-1.743,1.346-2.65
			C2036.348-1764.381,2036.213-1764.493,2036.213-1764.493z"/>
		<path fill="#2A9C2A" stroke="#2A9C2A" stroke-miterlimit="10" d="M2004.279-1788.045c-2.127,2.711-4.253,5.422-6.38,8.134
			c-0.446-0.339-0.891-0.678-1.337-1.018c0.421-3.967,2.58-6.685,6.324-8.262C2003.35-1788.809,2003.814-1788.427,2004.279-1788.045
			z"/>
		<path fill="#2A9C2A" stroke="#2A9C2A" stroke-miterlimit="10" d="M2019.518-1764.679c-0.004,4.044-1.656,7.114-5.237,9.042
			c-0.489-0.29-0.978-0.58-1.467-0.869c1.779-2.995,3.557-5.989,5.336-8.984C2018.606-1765.22,2019.062-1764.95,2019.518-1764.679z"
			/>
		<path fill="#2A9C2A" stroke="#2A9C2A" stroke-miterlimit="10" d="M1943.206-1858.02c-2.93-1.656-5.861-3.312-8.791-4.967
			c4.642-1.9,7.055-0.578,9.419,3.848C1943.624-1858.766,1943.415-1858.393,1943.206-1858.02z"/>
		<path fill="#2A9C2A" stroke="#2A9C2A" stroke-miterlimit="10" d="M2030.334-1761.978c1.659,4.008,2.926,7.07,4.193,10.131
			C2029.365-1753.821,2028.165-1756.854,2030.334-1761.978z"/>
		<path fill="#2A9C2A" stroke="#2A9C2A" stroke-miterlimit="10" d="M2051.398-1762.491c3.114-1.254,6.227-2.507,9.34-3.76
			c0.205,0.509,0.411,1.017,0.616,1.526c-2.315,3.226-5.454,4.416-9.378,3.668
			C2051.784-1761.535,2051.591-1762.013,2051.398-1762.491z"/>
		<path fill="#2A9C2A" stroke="#2A9C2A" stroke-miterlimit="10" d="M1879.494-1828.968c-3.029-0.192-6.058-0.385-9.087-0.577
			c0.05-0.791,0.101-1.583,0.151-2.374c3.029,0.196,6.057,0.393,9.086,0.589C1879.594-1830.542,1879.544-1829.755,1879.494-1828.968
			z"/>
		<path fill="#2A9C2A" stroke="#2A9C2A" stroke-miterlimit="10" d="M1890.01-1810.075c-0.321-3.045-0.641-6.09-0.962-9.136
			c0.749-0.093,1.498-0.186,2.246-0.278c0.42,3.012,0.84,6.025,1.261,9.037C1891.707-1810.327,1890.858-1810.201,1890.01-1810.075z"
			/>
		<path fill="#2A9C2A" stroke="#2A9C2A" stroke-miterlimit="10" d="M1910.326-1836.747c-2.262-1.994-4.524-3.988-6.787-5.982
			c0.511-0.583,1.022-1.166,1.532-1.749c2.27,1.985,4.539,3.971,6.809,5.956C1911.363-1837.93,1910.844-1837.338,1910.326-1836.747z
			"/>
		<path fill="#2A9C2A" stroke="#2A9C2A" stroke-miterlimit="10" d="M1951.38-1866.118c2.181,2.063,4.362,4.127,6.542,6.19
			c-0.51,0.556-1.02,1.112-1.529,1.668c-2.229-1.999-4.457-3.999-6.686-5.998C1950.265-1864.878,1950.823-1865.498,1951.38-1866.118
			z"/>
		<path fill="#2A9C2A" stroke="#2A9C2A" stroke-miterlimit="10" d="M1883.953-1818.905c-1.511-2.59-3.021-5.179-4.532-7.769
			c0.634-0.383,1.268-0.765,1.902-1.148c1.604,2.538,3.208,5.077,4.811,7.616C1885.407-1819.773,1884.68-1819.339,1883.953-1818.905
			z"/>
		<path fill="#2A9C2A" stroke="#2A9C2A" stroke-miterlimit="10" d="M1869.03-1794.707c2.953,0.136,5.907,0.271,9.53,0.438
			C1875.54-1790.755,1872.513-1790.855,1869.03-1794.707z"/>
		<path fill="#2A9C2A" stroke="#2A9C2A" stroke-miterlimit="10" d="M1982.228-1821.518c2.613-1.357,5.226-2.715,8.68-4.509
			c-1.584,4.764-3.471,5.849-8.194,5.728C1982.552-1820.706,1982.39-1821.112,1982.228-1821.518z"/>
		<path fill="#2A9C2A" stroke="#2A9C2A" stroke-miterlimit="10" d="M1991.631-1852.755c-2.716,1.398-5.432,2.796-8.148,4.195
			c-0.344-0.63-0.688-1.259-1.032-1.888c2.643-1.507,5.285-3.014,7.928-4.521
			C1990.796-1854.231,1991.214-1853.493,1991.631-1852.755z"/>
		<path fill="#2A9C2A" stroke="#2A9C2A" stroke-miterlimit="10" d="M1978.287-1814.832c-2.667,1.298-5.335,2.597-8.002,3.895
			c-0.331-0.651-0.661-1.302-0.992-1.953c2.639-1.391,5.279-2.783,7.918-4.174C1977.57-1816.32,1977.929-1815.576,1978.287-1814.832
			z"/>
		<path fill="#2A9C2A" stroke="#2A9C2A" stroke-miterlimit="10" d="M1994.661-1808.737c-2.676-1.393-5.353-2.786-8.029-4.179
			c0.336-0.664,0.672-1.329,1.007-1.993c2.692,1.306,5.385,2.612,8.077,3.917
			C1995.364-1810.241,1995.012-1809.489,1994.661-1808.737z"/>
		<path fill="#2A9C2A" stroke="#2A9C2A" stroke-miterlimit="10" d="M1922.761-1852.244c0.208-2.928,0.415-5.856,0.623-8.785
			c0.794,0.059,1.589,0.117,2.383,0.176c-0.227,2.927-0.454,5.853-0.682,8.78C1924.31-1852.13,1923.535-1852.187,1922.761-1852.244z
			"/>
		<path fill="#2A9C2A" stroke="#2A9C2A" stroke-miterlimit="10" d="M1971.852-1805.323c2.794-0.564,5.587-1.128,8.381-1.691
			c0.164,0.727,0.328,1.454,0.491,2.181c-2.764,0.667-5.528,1.334-8.292,2.001
			C1972.239-1803.663,1972.046-1804.493,1971.852-1805.323z"/>
		<path fill="#2A9C2A" stroke="#2A9C2A" stroke-miterlimit="10" d="M1888.06-1804.046c0.219,3.009,0.438,6.018,0.657,9.027
			c-0.744,0.068-1.489,0.136-2.233,0.204c-0.32-2.999-0.64-5.997-0.96-8.996C1886.37-1803.889,1887.215-1803.967,1888.06-1804.046z"
			/>
		<path fill="#2A9C2A" stroke="#2A9C2A" stroke-miterlimit="10" d="M1974.048-1798.66c-2.875,0.548-5.75,1.096-8.625,1.644
			c-0.15-0.742-0.299-1.484-0.449-2.225c2.864-0.608,5.728-1.215,8.592-1.823C1973.727-1800.263,1973.887-1799.461,1974.048-1798.66
			z"/>
		<path fill="#2A9C2A" stroke="#2A9C2A" stroke-miterlimit="10" d="M1925.818-1840.719c-1.392,2.57-2.784,5.14-4.472,8.255
			C1919.358-1836.496,1920.743-1839.192,1925.818-1840.719z"/>
		<path fill="#2A9C2A" stroke="#2A9C2A" stroke-miterlimit="10" d="M2010.655-1809.746c-2.633,1.498-5.266,2.996-7.899,4.494
			c-0.382-0.677-0.764-1.354-1.146-2.032c2.645-1.476,5.29-2.951,7.935-4.427
			C2009.914-1811.055,2010.284-1810.401,2010.655-1809.746z"/>
		<path fill="#2A9C2A" stroke="#2A9C2A" stroke-miterlimit="10" d="M1956.1-1790.67c-2.131-2.027-4.263-4.053-6.394-6.08
			c0.493-0.541,0.985-1.082,1.478-1.623c2.198,1.944,4.396,3.888,6.594,5.832C1957.219-1791.918,1956.66-1791.294,1956.1-1790.67z"
			/>
		<path fill="#2A9C2A" stroke="#2A9C2A" stroke-miterlimit="10" d="M1973.633-1826.56c-1.323,2.664-2.646,5.329-3.969,7.993
			c-0.682-0.338-1.365-0.675-2.047-1.013c1.313-2.67,2.626-5.339,3.939-8.009C1972.247-1827.245,1972.94-1826.902,1973.633-1826.56z
			"/>
		<path fill="#2A9C2A" stroke="#2A9C2A" stroke-miterlimit="10" d="M1929.997-1847.717c0.442-2.942,0.884-5.885,1.326-8.827
			c0.731,0.102,1.461,0.204,2.192,0.305c-0.357,2.983-0.714,5.966-1.07,8.948
			C1931.628-1847.432,1930.813-1847.575,1929.997-1847.717z"/>
		<path fill="#2A9C2A" stroke="#2A9C2A" stroke-miterlimit="10" d="M2006.384-1819.478c2.692-1.247,5.383-2.494,8.075-3.741
			c0.316,0.657,0.632,1.314,0.948,1.972c-2.666,1.343-5.332,2.686-7.998,4.029
			C2007.068-1817.971,2006.726-1818.725,2006.384-1819.478z"/>
		<path fill="#2A9C2A" stroke="#2A9C2A" stroke-miterlimit="10" d="M1956.211-1829.406c2.507-1.406,5.013-2.812,7.864-4.41
			c0.032,4.164-2.31,5.673-7.37,5.568C1956.54-1828.635,1956.376-1829.021,1956.211-1829.406z"/>
		<path fill="#2A9C2A" stroke="#2A9C2A" stroke-miterlimit="10" d="M1956.397-1802.781c-2.125-2.065-4.25-4.13-6.375-6.195
			c0.511-0.545,1.023-1.089,1.534-1.634c2.194,2,4.387,4,6.581,6C1957.558-1804,1956.978-1803.391,1956.397-1802.781z"/>
		<path fill="#2A9C2A" stroke="#2A9C2A" stroke-miterlimit="10" d="M1895.575-1800.252c-0.177-2.966-0.355-5.932-0.532-8.897
			c0.727-0.057,1.455-0.113,2.182-0.169c0.283,2.967,0.565,5.935,0.848,8.902C1897.24-1800.361,1896.407-1800.306,1895.575-1800.252
			z"/>
		<path fill="#2A9C2A" stroke="#2A9C2A" stroke-miterlimit="10" d="M1927.743-1819.573c2.658-1.359,5.316-2.719,7.974-4.078
			c0.346,0.676,0.692,1.351,1.038,2.027c-2.656,1.363-5.313,2.725-7.969,4.088
			C1928.438-1818.216,1928.091-1818.895,1927.743-1819.573z"/>
		<path fill="#2A9C2A" stroke="#2A9C2A" stroke-miterlimit="10" d="M1986.261-1780.201c-2.875,0.577-5.75,1.154-8.625,1.732
			c-0.146-0.785-0.291-1.569-0.437-2.354c2.888-0.51,5.776-1.021,8.664-1.531
			C1985.996-1781.637,1986.128-1780.919,1986.261-1780.201z"/>
		<path fill="#2A9C2A" stroke="#2A9C2A" stroke-miterlimit="10" d="M1889.427-1847.569c2.893,0.261,5.785,0.521,8.678,0.782
			c-0.057,0.737-0.113,1.473-0.169,2.21c-2.943-0.187-5.886-0.374-8.829-0.561
			C1889.213-1845.949,1889.32-1846.759,1889.427-1847.569z"/>
		<path fill="#2A9C2A" stroke="#2A9C2A" stroke-miterlimit="10" d="M1963.586-1792.768c2.866-0.573,5.731-1.145,8.597-1.718
			c0.155,0.755,0.31,1.511,0.465,2.266c-2.86,0.614-5.721,1.228-8.581,1.841C1963.906-1791.175,1963.746-1791.971,1963.586-1792.768
			z"/>
		<path fill="#2A9C2A" stroke="#2A9C2A" stroke-miterlimit="10" d="M2004.044-1793.399c2.583,1.258,5.167,2.516,7.75,3.774
			c-0.307,0.666-0.615,1.331-0.922,1.997c-2.619-1.159-5.239-2.318-7.858-3.476
			C2003.357-1791.869,2003.701-1792.634,2004.044-1793.399z"/>
		<path fill="#2A9C2A" stroke="#2A9C2A" stroke-miterlimit="10" d="M1986.886-1787.698c-2.806,0.542-5.612,1.085-8.418,1.627
			c-0.113-0.488-0.225-0.976-0.338-1.465c2.333-2.449,5.16-3.019,8.453-1.812
			C1986.685-1788.797,1986.785-1788.247,1986.886-1787.698z"/>
		<path fill="#2A9C2A" stroke="#2A9C2A" stroke-miterlimit="10" d="M1951.15-1824.149c-2.687,1.271-5.374,2.542-8.061,3.813
			c-0.319-0.641-0.638-1.282-0.957-1.923c2.649-1.394,5.298-2.788,7.947-4.182
			C1950.436-1825.677,1950.793-1824.913,1951.15-1824.149z"/>
		<path fill="#2A9C2A" stroke="#2A9C2A" stroke-miterlimit="10" d="M1929.63-1828.973c-1.538,2.574-3.077,5.148-4.615,7.721
			c-0.662-0.393-1.325-0.786-1.987-1.18c1.524-2.582,3.048-5.165,4.572-7.747C1928.276-1829.777,1928.953-1829.375,1929.63-1828.973
			z"/>
		<path fill="#2A9C2A" stroke="#2A9C2A" stroke-miterlimit="10" d="M1947.804-1849.427c-2.165-2.141-4.33-4.283-6.495-6.424
			c0.521-0.544,1.042-1.089,1.563-1.633c2.235,2.07,4.469,4.14,6.704,6.21C1948.985-1850.658,1948.395-1850.042,1947.804-1849.427z"
			/>
		<path fill="#2A9C2A" stroke="#2A9C2A" stroke-miterlimit="10" d="M2003.243-1828.531c-1.322-2.485-2.644-4.971-4.221-7.933
			c4.283,0.341,5.575,2.457,5.4,7.296C2004.03-1828.956,2003.636-1828.743,2003.243-1828.531z"/>
		<path fill="#2A9C2A" stroke="#2A9C2A" stroke-miterlimit="10" d="M1964.36-1817.144c-1.249-2.643-2.498-5.286-3.747-7.929
			c0.688-0.326,1.376-0.652,2.063-0.978c1.257,2.639,2.515,5.278,3.772,7.917C1965.753-1817.804,1965.056-1817.474,1964.36-1817.144
			z"/>
		<path fill="#2A9C2A" stroke="#2A9C2A" stroke-miterlimit="10" d="M1997.018-1828.078c1.292,2.611,2.583,5.222,3.875,7.832
			c-0.65,0.336-1.3,0.672-1.951,1.008c-1.363-2.553-2.726-5.107-4.089-7.66C1995.574-1827.291,1996.296-1827.685,1997.018-1828.078z
			"/>
		<path fill="#2A9C2A" stroke="#2A9C2A" stroke-miterlimit="10" d="M1870.747-1777.933c-2.231,1.194-4.461,2.388-6.692,3.582
			c-0.336-0.606-0.673-1.212-1.009-1.818c2.214-1.294,4.427-2.587,6.641-3.881
			C1870.041-1779.344,1870.394-1778.639,1870.747-1777.933z"/>
		<path fill="#2A9C2A" stroke="#2A9C2A" stroke-miterlimit="10" d="M2021.363-1800.069c-1.484-1.945-2.967-3.889-4.451-5.834
			c0.548-0.415,1.096-0.83,1.645-1.245c1.475,1.951,2.951,3.901,4.426,5.852C2022.443-1800.886,2021.903-1800.478,2021.363-1800.069
			z"/>
		<path fill="#2A9C2A" stroke="#2A9C2A" stroke-miterlimit="10" d="M1871.569-1765.288c1.632-2.072,3.264-4.144,4.896-6.216
			c0.566,0.438,1.132,0.875,1.697,1.313c-1.623,2.078-3.245,4.156-4.868,6.234
			C1872.719-1764.401,1872.144-1764.844,1871.569-1765.288z"/>
		<path fill="#2A9C2A" stroke="#2A9C2A" stroke-miterlimit="10" d="M2023.652-1792.513c2.323-0.905,4.646-1.809,6.969-2.714
			c0.254,0.599,0.507,1.199,0.761,1.798c-2.318,1.028-4.635,2.057-6.953,3.085C2024.17-1791.067,2023.911-1791.79,2023.652-1792.513
			z"/>
		<path fill="#2A9C2A" stroke="#2A9C2A" stroke-miterlimit="10" d="M2014.176-1799.508c1.533,1.997,3.065,3.995,4.598,5.992
			c-0.548,0.421-1.096,0.841-1.644,1.262c-1.535-1.995-3.071-3.991-4.606-5.986
			C2013.075-1798.662,2013.625-1799.085,2014.176-1799.508z"/>
	</g>
	<g>
		<path fill="#C9ECFF" d="M588.218-1130.252c0,0,315.15,138.408,725.84-10.934c-123.207-104.539-365.887-112.006-365.887-112.006
			L567-1184"/>
		<polyline fill="#EA6834" points="902.874,-913.098 623.353,-1100.117 716.691,-939.575 855.096,-893.43 902.874,-913.098 		"/>
		<g>
			<path fill="#3A1301" d="M1081.175-1064.197c10.053,10.204,17.527,21.773,20.333,36.04c-1.105-1.571-2.286-3.087-3.315-4.712
				c-15.166-23.864-35.986-30.06-64.15-22.445c-33.743,9.121-52.321,41.554-44.533,75.665c2.221,9.706,7.897,16.866,15.664,22.629
				c1.072,0.791,2.145,1.549,3.239,2.286v34.014H902.254v-31.23c6.12-4.745,10.367-10.973,12.555-19.076
				c3.51-12.999,5.979-26.052,3.564-39.441c-4.106-22.813-23.052-41.175-48.032-45.984c-7.756-1.484-15.989-1.571-23.897-0.943
				c-12.956,1.007-23.084,7.778-30.873,18.08c-2.654,3.51-5.178,7.117-8.049,11.082c0.682-8.969,4.56-15.88,20.138-36.256
				c-13.032-3.51-23.907-10.042-31.295-21.676c18.253,8.504,37.264,13.042,58.463,12.425c-11.667-26.421-18.61-53.426-19.358-81.894
				c2.102,6.954,3.737,14.093,6.402,20.831c6.846,17.267,14.028,34.415,21.405,51.465c1.127,2.622,3.596,5.059,6.045,6.662
				c12.717,8.309,25.446,16.628,38.553,24.286c5.46,3.185,11.883,4.745,17.863,7.052c0.628-0.336,1.267-0.672,1.896-0.997
				c0-6.142,0.932-12.457-0.152-18.404c-7.106-38.791-24.016-72.297-54.477-98.208c-0.238-0.206-0.347-0.574-0.737-1.235
				c14.191,1.863,22.196,12.49,30.829,20.95c-1.278-15.187-2.546-30.364-3.824-45.551c0.574-0.076,1.137-0.152,1.701-0.227
				c3.401,11.558,6.25,23.312,10.345,34.61c4.105,11.331,9.457,22.207,15.133,33.148c19.78-30.017,26.67-62.071,18.069-97.114
				c6.055,5.969,11.764,23.355,13.92,43.254c5.265-3.921,10.28-7.009,14.461-10.973c4.116-3.911,7.399-8.709,12.197-12.815
				c-1.072,3.391-1.387,7.334-3.369,10.053c-3.369,4.615-7.366,9.002-11.862,12.49c-5.86,4.55-10.107,9.814-13.01,16.671
				c-8.568,20.289-15.285,40.936-14.537,63.349c0.509,15.014,3.986,29.302,10.139,44.045c14.115-11.645,21.806-25.911,21.936-43.558
				c0.141-17.408-7.843-32.238-17.278-46.482c6.37,1.007,9.663,4.42,22.857,23.561c4.983-16.65,6.272-33.332,5.34-50.274l1.625-0.39
				c1.224,4.647,3.629,9.349,3.423,13.931c-0.52,11.548-2.524,23.008-3.336,34.545c-0.672,9.468-0.574,18.99-0.596,28.49
				c0,1.278,1.257,3.607,1.95,3.618c1.473,0.011,3.423-0.823,4.333-1.972c1.647-2.101,3.12-4.55,3.889-7.095
				c4.593-15.187,8.926-30.45,13.411-45.659c3.629-12.327,7.984-24.341,15.534-34.924c0.975-1.365,2.069-2.643,3.661-4.669
				c-2.221,10.28-3.986,19.693-6.315,28.955c-4.885,19.52-9.262,39.236-15.436,58.344c-4.041,12.544-10.8,24.222-16.487,36.224
				c-2.004,4.236-4.452,8.265-6.695,12.392c0.336,0.477,0.682,0.953,1.018,1.441c5.579-2.286,11.515-3.943,16.639-6.976
				c12.501-7.366,24.752-15.176,36.798-23.257c3.228-2.156,6.099-5.546,7.908-9.013c11.082-21.264,19.412-43.623,25.684-66.761
				c0.39-1.462,0.867-2.881,2.329-4.16c-1.137,9.143-1.842,18.361-3.531,27.396c-1.744,9.37-4.095,18.675-6.846,27.807
				c-2.697,8.915-6.24,17.592-9.619,26.973c20.463,0.737,39.42-3.737,57.553-12.652
				C1109.957-1078.55,1099.374-1070.967,1081.175-1064.197z"/>
			<path fill="#2A9C2A" stroke="#2A9C2A" stroke-miterlimit="10" d="M917.127-1216.859c5.56,2.905,10.522,5.719,15.669,8.137
				c8.311,3.904,11.641,14.025,6.985,21.993c-0.32,0.548-0.82,1.089-1.37,1.389c-6.367,3.47-16.438,0.27-19.345-6.373
				C915.461-1199.952,915.719-1208.518,917.127-1216.859z"/>
			<path fill="#2A9C2A" stroke="#2A9C2A" stroke-miterlimit="10" d="M1064.184-1202.704c3.554,4.866,6.642,9.443,10.086,13.734
				c5.779,7.202,4.433,17.961-3.419,22.629c-1.423,0.846-4.182,0.015-6.109-0.658c-8.078-2.819-10.787-7.12-9.599-15.536
				C1056.232-1190.251,1059.542-1197.04,1064.184-1202.704z"/>
			<path fill="#2A9C2A" stroke="#2A9C2A" stroke-miterlimit="10" d="M982.374-1233.498c0.463,5.804,0.762,11.323,1.373,16.807
				c0.915,8.206-6.578,16.601-14.659,16.205c-5.223-0.256-9.661-12.264-6.661-18.021
				C965.663-1224.713,974.537-1231.282,982.374-1233.498z"/>
			<path fill="#2A9C2A" stroke="#2A9C2A" stroke-miterlimit="10" d="M852.919-1151.915c5.572-1.297,10.705-2.247,15.689-3.705
				c8.643-2.528,17.559,2.542,19.036,11.244c0.159,0.935-0.562,2.192-1.198,3.064c-6.2,8.505-12.988,9.637-21.445,3.327
				C859.832-1141.841,855.466-1146.49,852.919-1151.915z"/>
			<path fill="#2A9C2A" stroke="#2A9C2A" stroke-miterlimit="10" d="M1037.588-1142.018c4.439,4.146,8.517,8.088,12.741,11.867
				c5.989,5.357,6.052,16.264,0.017,21.41c-3.856,3.288-15.262-1.96-16.853-8.038
				C1031.082-1125.989,1033.953-1134.337,1037.588-1142.018z"/>
			<path fill="#2A9C2A" stroke="#2A9C2A" stroke-miterlimit="10" d="M1109.327-1124.513c4.32,7.157,7.101,15.035,6.151,23.845
				c-0.679,6.29-9.075,12.392-15.101,10.736c-1.716-0.471-3.116-2.913-4.198-4.727c-4.51-7.562-3.563-12.505,2.792-18.582
				C1102.477-1116.592,1105.563-1120.384,1109.327-1124.513z"/>
			<path fill="#2A9C2A" stroke="#2A9C2A" stroke-miterlimit="10" d="M1151.057-1104.543c-3.036,9.276-7.49,16.89-15.791,21.519
				c-4.891,2.728-14.072-0.218-16.568-5.371c-0.753-1.555,0.239-4.175,0.896-6.153c2.825-8.502,7.477-11.179,16.332-9.756
				c2.345,0.377,4.73,0.723,7.094,0.703C1145.352-1103.621,1147.68-1104.122,1151.057-1104.543z"/>
			<path fill="#2A9C2A" stroke="#2A9C2A" stroke-miterlimit="10" d="M857.757-1242.376c4.099,3.808,7.464,7.346,11.246,10.36
				c7.704,6.138,8.784,14.797,2.405,22.22c-0.5,0.581-1.281,1.111-2.017,1.268c-6.459,1.38-14.182-3.077-15.57-9.363
				C851.866-1226.74,854.213-1234.932,857.757-1242.376z"/>
			<path fill="#2A9C2A" stroke="#2A9C2A" stroke-miterlimit="10" d="M800.773-1124.595c3.904,4.271,7.118,8.189,10.75,11.672
				c6.585,6.315,6.704,15.804-0.054,22.11c-0.555,0.518-1.395,0.971-2.131,1.019c-8.443,0.55-14.766-5.461-14.794-13.965
				C794.517-1111.504,797.194-1118.364,800.773-1124.595z"/>
			<path fill="#2A9C2A" stroke="#2A9C2A" stroke-miterlimit="10" d="M789.62-1174.415c6.356,0,12.062,0.166,17.754-0.04
				c7.819-0.283,15.997,7.972,15.021,15.415c-0.668,5.096-12.485,9.17-17.94,5.863
				C796.483-1158.011,792.608-1165.781,789.62-1174.415z"/>
			<path fill="#2A9C2A" stroke="#2A9C2A" stroke-miterlimit="10" d="M1124.368-1041.436c-7.981-2.735-14.595-6.769-19.502-13.149
				c-4.64-6.033-2.864-15.707,3.623-19.273c1.394-0.766,3.897-0.045,5.702,0.556c9.124,3.038,11.573,7.666,10.286,17.112
				C1123.849-1051.582,1124.368-1046.818,1124.368-1041.436z"/>
			<path fill="#2A9C2A" stroke="#2A9C2A" stroke-miterlimit="10" d="M835.631-1002.865c-2.817-5.203-5.218-10.012-7.961-14.618
				c-4.35-7.305-1.414-17.442,6.246-20.9c3.419-1.543,12.437,4.867,13.219,9.814c0.412,2.604,0.247,5.51-0.481,8.043
				C844.642-1013.526,840.741-1007.602,835.631-1002.865z"/>
			<path fill="#2A9C2A" stroke="#2A9C2A" stroke-miterlimit="10" d="M787.653-1036.403c-0.381-5.93-0.689-11.445-1.1-16.953
				c-0.641-8.601,5.735-15.733,14.286-15.9c2.604-0.051,7.924,6.474,8.131,10.708c0.119,2.427-0.246,5.282-1.462,7.299
				C802.831-1043.487,795.386-1039.333,787.653-1036.403z"/>
			<path fill="#2A9C2A" stroke="#2A9C2A" stroke-miterlimit="10" d="M1085.679-1002.969c-6.296-5.902-11.18-13.285-11.918-22.732
				c-0.467-5.969,8.731-14.464,13.342-12.865c5.821,2.018,10.44,12.241,8.107,18.03c-0.442,1.097-1.084,2.116-1.654,3.16
				C1090.984-1012.663,1088.406-1007.954,1085.679-1002.969z"/>
			<path fill="#2A9C2A" stroke="#2A9C2A" stroke-miterlimit="10" d="M863.734-1192.064c5.302,0.257,10.616,0.7,15.932,0.731
				c8.627,0.051,15.503,7.394,14.534,15.976c-0.111,0.987-0.977,2.094-1.802,2.764c-7.746,6.289-14.881,5.484-21.189-2.295
				C866.796-1180.329,863.717-1187.671,863.734-1192.064z"/>
			<path fill="#2A9C2A" stroke="#2A9C2A" stroke-miterlimit="10" d="M797.014-1130.494c4.446-4.062,8.578-7.708,12.563-11.509
				c5.965-5.689,16.224-5.065,21.368,1.404c3.072,3.863-2.563,14.993-8.487,16.142
				C812.912-1122.608,804.614-1126.009,797.014-1130.494z"/>
			<path fill="#2A9C2A" stroke="#2A9C2A" stroke-miterlimit="10" d="M754.915-1106.161c6.124-0.367,11.63-0.63,17.125-1.043
				c8.245-0.619,15.775,6.344,15.629,14.552c-0.096,5.378-12,9.996-17.775,6.591
				C762.022-1090.701,757.867-1098.216,754.915-1106.161z"/>
			<path fill="#2A9C2A" stroke="#2A9C2A" stroke-miterlimit="10" d="M965.39-1260.068c0.932,4.674,1.685,9.478,2.873,14.173
				c2.057,8.129-2.694,15.799-10.872,17.149c-2.953,0.488-8.823-5.818-9.112-10.273c-0.137-2.115,0.32-4.443,1.14-6.412
				C951.895-1251.379,959.514-1257.996,965.39-1260.068z"/>
			<path fill="#2A9C2A" stroke="#2A9C2A" stroke-miterlimit="10" d="M1036.408-1238.606c-3.144,5.391-5.652,9.199-7.668,13.253
				c-3.756,7.551-11.41,10.194-18.85,6.226c-3.926-2.094-2.975-13.266,1.822-16.135c2.958-1.769,6.61-2.812,10.063-3.212
				C1026.399-1239.008,1031.132-1238.606,1036.408-1238.606z"/>
			<path fill="#2A9C2A" stroke="#2A9C2A" stroke-miterlimit="10" d="M1006.182-1258.045c-2.301,4.015-4.728,7.863-6.774,11.904
				c-3.603,7.115-12.434,9.875-19.056,5.756c-2.921-1.817-2.627-10.985,0.47-14.648
				C985.256-1260.277,1000.953-1261.824,1006.182-1258.045z"/>
			<path fill="#2A9C2A" stroke="#2A9C2A" stroke-miterlimit="10" d="M938.329-1287.21c2.233,4.101,4.086,8.064,6.436,11.706
				c4.789,7.42,3.205,15.208-4.284,19.691c-3.119,1.867-11.39-3.097-12.39-7.871c-0.532-2.544-0.331-5.42,0.254-7.983
				C929.716-1277.666,934.195-1284.155,938.329-1287.21z"/>
			<path fill="#2A9C2A" stroke="#2A9C2A" stroke-miterlimit="10" d="M798.835-1214.403c4.454,2.619,8.269,5.047,12.251,7.162
				c6.858,3.644,9.494,11.933,5.008,18.124c-1.107,1.528-4.428,1.871-6.771,1.995c-4.203,0.222-7.655-1.497-9.472-5.573
				C796.644-1199.885,797.298-1207.214,798.835-1214.403z"/>
			<path fill="#2A9C2A" stroke="#2A9C2A" stroke-miterlimit="10" d="M886.415-1268.689c2.063,4.35,3.591,8.074,5.536,11.566
				c3.819,6.854,2.225,13.768-4.777,17.206c-1.534,0.753-4.385-0.395-6.29-1.347c-3.627-1.811-5.666-4.951-5.136-9.159
				C876.716-1258.091,881.163-1263.697,886.415-1268.689z"/>
			<path fill="#2A9C2A" stroke="#2A9C2A" stroke-miterlimit="10" d="M889.285-1219.656c3.461,2.221,7.477,4.29,10.883,7.097
				c5.591,4.607,5.628,12.41,0.535,17.568c-3.119,3.159-12.544-0.595-13.993-5.917
				C884.569-1208.773,887.278-1215.771,889.285-1219.656z"/>
			<path fill="#2A9C2A" stroke="#2A9C2A" stroke-miterlimit="10" d="M921.19-1245.014c-0.903,5.146-1.731,9.756-2.517,14.373
				c-1.091,6.412-8.449,11.036-14.733,9.234c-4.386-1.258-5.762-11.628-1.809-15.628
				C907.405-1242.372,914.215-1244.14,921.19-1245.014z"/>
			<path fill="#2A9C2A" stroke="#2A9C2A" stroke-miterlimit="10" d="M1101.105-1181.74c-1.365,4.452-2.656,8.426-3.797,12.442
				c-1.687,5.942-8.53,9.86-13.946,7.218c-1.74-0.849-3.313-4.141-3.187-6.207c0.177-2.894,1.253-6.557,3.297-8.349
				C1088.363-1180.928,1094.704-1181.828,1101.105-1181.74z"/>
			<path fill="#2A9C2A" stroke="#2A9C2A" stroke-miterlimit="10" d="M1017.033-1200.128c-2.354,3.272-4.602,6.91-7.361,10.108
				c-3.967,4.6-12.108,4.703-15.685-0.077c-1.149-1.535-1.018-5.183,0.049-6.942c1.509-2.486,4.16-5.263,6.8-5.883
				C1007.286-1204.438,1013.358-1202.194,1017.033-1200.128z"/>
			<path fill="#2A9C2A" stroke="#2A9C2A" stroke-miterlimit="10" d="M848.186-1213.694c0.612,4.635,1.198,8.772,1.695,12.919
				c0.646,5.389-5.048,11.642-10.106,11.16c-3.975-0.378-7.356-8.362-5.121-12.628
				C837.621-1207.904,842.696-1211.1,848.186-1213.694z"/>
			<path fill="#2A9C2A" stroke="#2A9C2A" stroke-miterlimit="10" d="M1058.55-1252.62c0.562,4.261,0.979,7.93,1.542,11.577
				c0.961,6.221-2.359,11.196-8.675,11.995c-1.49,0.188-3.555-1.323-4.793-2.599c-2.512-2.589-3.583-5.773-1.784-9.3
				C1047.761-1246.677,1052.771-1249.907,1058.55-1252.62z"/>
			<path fill="#2A9C2A" stroke="#2A9C2A" stroke-miterlimit="10" d="M1053.31-1212.668c-1.958,5.527-3.307,10.546-5.558,15.121
				c-0.963,1.957-3.668,3.917-5.822,4.233c-3.471,0.509-7.955,0.635-9.197-3.9c-1.493-5.451,1.719-10.814,6.601-12.107
				C1043.386-1210.395,1047.488-1211.283,1053.31-1212.668z"/>
			<path fill="#2A9C2A" stroke="#2A9C2A" stroke-miterlimit="10" d="M1045.022-1166.824c3.538,1.884,7.118,3.743,10.653,5.683
				c4.748,2.605,6.57,9.742,3.685,14.24c-2.387,3.723-10.897,2.17-13.531-2.469
				C1043.384-1153.677,1043.063-1161.98,1045.022-1166.824z"/>
			<path fill="#2A9C2A" stroke="#2A9C2A" stroke-miterlimit="10" d="M1102.109-1126.375c-5.68,1.42-10.623,3.257-15.699,3.765
				c-5.827,0.584-10.444-4.313-9.555-9.975c0.293-1.867,3.011-3.729,5.031-4.864c3.416-1.92,6.89-1.449,9.862,1.351
				C1094.799-1133.221,1097.863-1130.358,1102.109-1126.375z"/>
			<path fill="#2A9C2A" stroke="#2A9C2A" stroke-miterlimit="10" d="M827.627-1191.712c2.652,3.033,5.003,5.906,7.551,8.594
				c4.423,4.667,4.457,11.255-0.582,15.261c-1.241,0.987-4.071,0.501-5.988-0.003c-3.638-0.956-5.836-3.581-5.998-7.412
				C822.349-1181.412,824.37-1186.872,827.627-1191.712z"/>
			<path fill="#2A9C2A" stroke="#2A9C2A" stroke-miterlimit="10" d="M1143.117-1139.913c-1.863,5.354-3.147,10.449-5.451,15.031
				c-1.038,2.063-3.97,4.022-6.297,4.383c-3.28,0.509-7.622,0.541-8.672-3.96c-1.357-5.822,1.618-10.82,6.616-12.11
				C1133.389-1137.621,1137.495-1138.556,1143.117-1139.913z"/>
			<path fill="#2A9C2A" stroke="#2A9C2A" stroke-miterlimit="10" d="M805.972-989.43c-1.6-3.816-2.911-7.274-4.479-10.61
				c-2.743-5.833-0.712-12.219,5.22-14.263c1.544-0.532,4.619,0.57,5.632,1.932c1.76,2.367,3.68,5.668,3.362,8.317
				C814.969-997.921,810.807-993.426,805.972-989.43z"/>
			<path fill="#2A9C2A" stroke="#2A9C2A" stroke-miterlimit="10" d="M1152.348-1066.387c-5.212,3.579-11.039,5.307-17.465,4.399
				c-4.686-0.662-6.417-4.443-6.698-8.426c-0.121-1.719,1.6-4.192,3.195-5.279c3.577-2.438,7.629-3.003,11.252,0.198
				C1145.87-1072.635,1148.946-1069.59,1152.348-1066.387z"/>
			<path fill="#2A9C2A" stroke="#2A9C2A" stroke-miterlimit="10" d="M969.585-1164.877c2.852,3.251,5.056,6.015,7.525,8.517
				c3.229,3.273,4.524,6.974,2.166,11.042c-1.204,2.078-3.537,5.076-5.222,4.989c-4.184-0.215-8.602-1.729-9.274-7.046
				C963.957-1153.885,966.035-1159.622,969.585-1164.877z"/>
			<path fill="#2A9C2A" stroke="#2A9C2A" stroke-miterlimit="10" d="M1131.768-1015.879c-5.974-0.868-11.26-1.045-16.166-2.505
				c-5.493-1.634-7.908-8.06-4.936-12.827c0.995-1.595,4.503-2.76,6.482-2.339c2.984,0.636,6.444,2.212,8.232,4.525
				C1127.962-1025.686,1129.229-1021.329,1131.768-1015.879z"/>
			<path fill="#2A9C2A" stroke="#2A9C2A" stroke-miterlimit="10" d="M861.849-1177.306c-1.161,3.835-2.325,7.695-3.498,11.551
				c-1.653,5.432-8.83,8.777-13.662,6.371c-3.791-1.887-3.413-10.696,0.6-13.961
				C849.118-1176.461,856.474-1178.176,861.849-1177.306z"/>
			<path fill="#2A9C2A" stroke="#2A9C2A" stroke-miterlimit="10" d="M772.457-1012.552c1.884-4.017,3.514-7.345,5.017-10.731
				c2.437-5.491,8.935-8.107,14.01-5.023c1.411,0.857,2.558,3.88,2.19,5.549c-0.633,2.878-1.856,6.554-4.065,7.97
				C784.481-1011.501,778.441-1011.166,772.457-1012.552z"/>
			<path fill="#2A9C2A" stroke="#2A9C2A" stroke-miterlimit="10" d="M762.006-1132.926c4.037,0.952,7.801,1.843,11.567,2.727
				c5.593,1.312,9.726,8.022,7.377,12.988c-0.778,1.645-3.831,3.124-5.804,3.075c-2.76-0.068-6.079-0.956-8.092-2.715
				C763.38-1120.061,761.813-1126.668,762.006-1132.926z"/>
			<path fill="#2A9C2A" stroke="#2A9C2A" stroke-miterlimit="10" d="M1107.273-988.602c-3.131-4.525-6.333-8.267-8.514-12.531
				c-2.635-5.15-1.279-8.543,3.157-11.935c2.51-1.919,4.563-2.283,7.151-0.03c4.621,4.021,5.667,7.444,3.388,12.531
				C1110.875-997.041,1109.38-993.476,1107.273-988.602z"/>
			<path fill="#2A9C2A" stroke="#2A9C2A" stroke-miterlimit="10" d="M1097.068-1222.807c-0.658,4.592-1.221,8.748-1.854,12.893
				c-0.795,5.204-7.514,9.422-12.401,7.826c-3.889-1.27-5.235-9.84-1.849-13.425
				C1085.34-1220.147,1090.986-1222.147,1097.068-1222.807z"/>
			<path fill="#2A9C2A" stroke="#2A9C2A" stroke-miterlimit="10" d="M750.2-1066.872c2.727-2.568,5.512-5.027,8.104-7.674
				c3.152-3.218,6.825-4.022,10.684-1.982c2.035,1.076,5.199,3.55,4.935,4.756c-0.702,3.214-2.286,7.028-4.793,8.882
				C764.707-1059.619,753.695-1062.657,750.2-1066.872z"/>
			<path fill="#2A9C2A" stroke="#2A9C2A" stroke-miterlimit="10" d="M1122.087-1151.696c-3.443,3.078-6.408,5.749-9.395,8.394
				c-4.212,3.73-11.954,2.915-14.967-1.558c-2.178-3.234,2.277-10.853,7-11.521
				C1111.071-1157.279,1116.681-1155.077,1122.087-1151.696z"/>
			<path fill="#2A9C2A" stroke="#2A9C2A" stroke-miterlimit="10" d="M825.837-1243.426c3.883,1.965,7.123,3.699,10.443,5.263
				c5.479,2.581,7.972,8.74,4.978,13.955c-0.812,1.414-3.541,2.095-5.501,2.403c-3.678,0.578-6.704-0.862-8.378-4.349
				C824.716-1231.7,824.755-1237.482,825.837-1243.426z"/>
			<path fill="#2A9C2A" stroke="#2A9C2A" stroke-miterlimit="10" d="M931.049-1250.761c3.179,1.873,6.33,3.796,9.544,5.607
				c5.034,2.836,7.012,9.079,3.869,13.974c-0.829,1.291-3.612,2.412-5.04,2.005c-2.867-0.817-7.123-2.215-7.768-4.309
				c-1.679-5.452-1.717-11.41-2.41-17.166C929.845-1250.687,930.447-1250.724,931.049-1250.761z"/>
			<path fill="#2A9C2A" stroke="#2A9C2A" stroke-miterlimit="10" d="M1134.425-1171.158c-4.536,2.184-7.011,3.949-9.739,4.528
				c-2.735,0.58-6.048,0.713-8.486-0.365c-1.659-0.733-3.464-4.176-3.056-5.899c0.802-3.392,3.723-6.436,7.583-5.161
				C1125.178-1176.584,1129.213-1173.856,1134.425-1171.158z"/>
			<path fill="#2A9C2A" stroke="#2A9C2A" stroke-miterlimit="10" d="M1000.979-1226.869c0.387,4.623,0.949,7.473,0.757,10.271
				c-0.151,2.198-0.594,5.193-2.06,6.28c-1.913,1.419-5.765,2.578-7.355,1.578c-3.108-1.954-4.548-5.988-1.679-9.267
				C993.432-1221.194,997.101-1223.613,1000.979-1226.869z"/>
			<path fill="#2A9C2A" stroke="#2A9C2A" stroke-miterlimit="10" d="M1004.562-1180.333c0.206,3.044,0.833,6.138,0.482,9.116
				c-0.27,2.29-1.221,5.136-2.884,6.438c-1.548,1.212-5.074,1.712-6.599,0.744c-2.814-1.787-4.381-5.439-1.947-8.442
				c2.755-3.4,6.435-6.05,9.712-9.026C1003.738-1181.113,1004.15-1180.723,1004.562-1180.333z"/>
		</g>
		<g>
			<path fill="#EA6834" d="M1391.015-1170.99c-21.468,2.483-95.749,14.011-116.657,19.275
				c-249.849,393.422-616.725,50.048-673.96-7.56c-15.401-5.955-30.746-12.059-46.091-18.201
				c-12.097-4.854-24.201-7.604-21.308-4.524c31.007,32.818,47.89,80.912,74.212,117.557c17.305,24.1,34.778,48.069,52.68,71.721
				c25.257,33.415,52.419,65.188,84.49,92.405c29.234,24.791,61.473,44.13,98.603,54.808c23.727,6.814,48.051,8.195,72.487,8.55
				c38.848,0.579,77.564-1.811,116.113-6.739c29.812-3.827,57.665-13.161,83.389-28.842c25.425-15.494,47.528-34.983,67.95-56.47
				c26.956-28.393,50.328-59.699,74.13-90.669c18.07-23.521,36.047-47.173,55.294-69.705
				C1339.77-1121.51,1415.134-1173.771,1391.015-1170.99z M861.97-901.287c-6.907-0.448-14.627,4.918-20.758,1.675
				C797-923,759.634-926.769,727.488-956.786c-32.855-30.652-59.401-66.214-80.981-105.566c-1.195-2.147-2.203-4.406-3.286-6.627
				c0.28-0.261,0.56-0.541,0.84-0.803c2.24,1.941,4.76,3.64,6.664,5.88c8.064,9.558,16.054,19.19,23.895,28.953
				c21.038,26.191,43.458,51.038,69.257,72.748c19.321,16.278,41.536,27.218,64.665,36.607
				c14.131,5.731,28.431,11.033,42.581,16.689c3.958,1.605,7.654,3.827,11.481,5.768
				C862.381-902.519,862.175-901.903,861.97-901.287z"/>
			<path fill="#EA6834" d="M1293.702-1156.156c-35.856,0.049-69.332-9.078-101.476-24.235
				c-24.309-11.463-48.65-22.899-74.317-31.141c-32.03-10.284-64.84-16.766-98.26-20.421c-34.706-3.796-69.47-4.368-104.262-1.92
				c-67.125,4.723-132.033,19.258-194.427,44.658c-29.951,12.193-60.877,20.623-93.182,23.234
				c-31.532,2.549-62.26-0.411-90.986-15.093c-7.531-3.849-8.219-6.885-1.702-11.982c32.179-25.166,55.811-57.518,77.726-91.391
				c15.363-23.747,30.589-47.594,48.995-69.203c27.615-32.422,61.713-54.058,103.226-64.564
				c35.297-8.932,68.075-3.756,98.793,14.908c16.665,10.126,32.519,21.58,48.973,32.068c7.551,4.813,15.294,9.728,23.606,12.854
				c15.238,5.731,30.305,2.829,44.784-3.811c13.526-6.203,25.369-15.023,37.208-23.864c10.328-7.712,20.536-15.609,31.16-22.895
				c18.814-12.901,39.628-19.542,62.622-18.076c20.015,1.276,38.312,8.113,55.493,18.107c28.652,16.666,52.458,39.009,72.752,64.876
				c19.15,24.409,37.049,49.8,55.475,74.776c15.549,21.076,31.563,41.758,50.633,59.852c13.247,12.569,27.745,23.328,44.379,31.12
				c2.356,1.104,4.015,3.695,5.996,5.597c-2.169,1.697-4.11,4.341-6.545,4.925c-10.311,2.471-20.684,5.138-31.191,6.245
				C1337.403-1159.237,1315.532-1157.892,1293.702-1156.156z M841.66-1368.684c0.148-0.261,0.297-0.522,0.445-0.783
				c-1.798-1.186-3.512-2.529-5.406-3.533c-13.046-6.911-26.971-11.19-41.466-13.782c-17.676-3.16-34.463-0.57-50.036,8.299
				c-7.367,4.196-14.573,8.858-21.209,14.12c-23.139,18.35-43.322,39.783-62.893,61.788c-12.985,14.6-25.482,29.609-35.787,46.293
				c-1.067,1.728-1.947,3.571-2.914,5.361c0.241,0.199,0.483,0.397,0.724,0.596c1.281-0.888,2.676-1.65,3.824-2.686
				c7.996-7.208,16.064-14.344,23.881-21.744c25.553-24.189,50.875-48.623,76.597-72.63c6.166-5.755,13.105-10.98,20.434-15.133
				c22.461-12.725,46.643-15.832,71.89-10.906C827.079-1371.992,834.356-1370.272,841.66-1368.684z"/>
		</g>
	</g>
	<g>
		<path fill="#C9ECFF" d="M98.886,241.875c0,0,159.872,70.213,368.211-5.547c-62.501-53.032-185.61-56.82-185.61-56.82
			l-193.364,35.1"/>
		<polyline fill="#EA6834" points="258.507,352.034 116.709,257.162 164.059,338.603 234.27,362.011 258.507,352.034 		"/>
		<g>
			<path fill="#3A1301" d="M348.957,275.383c5.1,5.177,8.891,11.045,10.315,18.283c-0.561-0.797-1.159-1.566-1.682-2.39
				c-7.693-12.106-18.255-15.249-32.543-11.386c-17.118,4.627-26.542,21.08-22.591,38.384c1.127,4.924,4.006,8.556,7.946,11.48
				c0.544,0.401,1.088,0.786,1.643,1.159v17.255h-53.853v-15.843c3.105-2.407,5.259-5.567,6.369-9.677
				c1.78-6.594,3.033-13.216,1.808-20.008c-2.083-11.573-11.694-20.887-24.366-23.327c-3.935-0.753-8.111-0.797-12.122-0.478
				c-6.572,0.511-11.71,3.946-15.661,9.172c-1.346,1.78-2.627,3.61-4.083,5.622c0.346-4.55,2.314-8.056,10.216-18.393
				c-6.611-1.78-12.128-5.094-15.876-10.996c9.259,4.314,18.904,6.616,29.658,6.303c-5.918-13.403-9.441-27.102-9.82-41.544
				c1.066,3.528,1.896,7.149,3.248,10.567c3.473,8.759,7.116,17.458,10.859,26.108c0.572,1.33,1.824,2.566,3.066,3.38
				c6.451,4.215,12.908,8.435,19.558,12.32c2.77,1.616,6.028,2.407,9.062,3.577c0.319-0.17,0.643-0.341,0.962-0.506
				c0-3.116,0.473-6.32-0.077-9.336c-3.605-19.678-12.183-36.675-27.635-49.82c-0.121-0.104-0.176-0.291-0.374-0.626
				c7.199,0.945,11.26,6.336,15.639,10.628c-0.648-7.704-1.291-15.403-1.94-23.107c0.291-0.038,0.577-0.077,0.863-0.115
				c1.726,5.863,3.171,11.826,5.248,17.557c2.083,5.748,4.797,11.265,7.677,16.815c10.034-15.227,13.529-31.488,9.166-49.265
				c3.072,3.028,5.968,11.848,7.061,21.942c2.671-1.989,5.215-3.555,7.336-5.567c2.088-1.984,3.753-4.418,6.188-6.501
				c-0.544,1.72-0.703,3.72-1.709,5.1c-1.709,2.341-3.737,4.567-6.017,6.336c-2.973,2.308-5.127,4.979-6.6,8.457
				c-4.347,10.293-7.754,20.766-7.375,32.136c0.258,7.616,2.022,14.865,5.144,22.344c7.16-5.907,11.062-13.145,11.128-22.096
				c0.071-8.831-3.979-16.354-8.765-23.58c3.231,0.511,4.902,2.242,11.595,11.952c2.528-8.446,3.182-16.909,2.709-25.503
				l0.824-0.198c0.621,2.357,1.841,4.742,1.737,7.067c-0.264,5.858-1.28,11.672-1.693,17.524c-0.341,4.803-0.291,9.633-0.302,14.452
				c0,0.648,0.637,1.83,0.989,1.835c0.747,0.005,1.736-0.418,2.198-1c0.835-1.066,1.583-2.308,1.973-3.599
				c2.33-7.704,4.528-15.447,6.803-23.162c1.841-6.254,4.05-12.348,7.88-17.717c0.495-0.692,1.05-1.341,1.857-2.368
				c-1.127,5.215-2.022,9.99-3.204,14.689c-2.478,9.902-4.698,19.904-7.831,29.597c-2.05,6.363-5.479,12.287-8.364,18.376
				c-1.017,2.149-2.259,4.193-3.396,6.287c0.17,0.242,0.346,0.484,0.517,0.731c2.83-1.159,5.841-2,8.441-3.539
				c6.341-3.737,12.557-7.699,18.667-11.798c1.638-1.094,3.094-2.814,4.012-4.572c5.622-10.787,9.847-22.129,13.029-33.867
				c0.198-0.742,0.44-1.462,1.181-2.11c-0.577,4.638-0.934,9.314-1.791,13.897c-0.885,4.753-2.077,9.474-3.473,14.106
				c-1.368,4.523-3.165,8.924-4.88,13.683c10.38,0.374,19.997-1.896,29.196-6.418C363.558,268.102,358.189,271.949,348.957,275.383z
				"/>
			<path fill="#2A9C2A" stroke="#2A9C2A" stroke-miterlimit="10" d="M265.737,197.939c2.821,1.474,5.338,2.901,7.949,4.128
				c4.216,1.98,5.905,7.115,3.543,11.157c-0.162,0.278-0.416,0.553-0.695,0.705c-3.23,1.76-8.339,0.137-9.813-3.233
				C264.892,206.516,265.023,202.171,265.737,197.939z"/>
			<path fill="#2A9C2A" stroke="#2A9C2A" stroke-miterlimit="10" d="M340.338,205.121c1.803,2.469,3.37,4.79,5.117,6.967
				c2.932,3.654,2.249,9.112-1.734,11.479c-0.722,0.429-2.121,0.008-3.099-0.334c-4.098-1.43-5.472-3.612-4.87-7.881
				C336.304,211.438,337.983,207.994,340.338,205.121z"/>
			<path fill="#2A9C2A" stroke="#2A9C2A" stroke-miterlimit="10" d="M298.837,189.499c0.235,2.945,0.386,5.744,0.697,8.526
				c0.464,4.163-3.337,8.421-7.436,8.22c-2.65-0.13-4.901-6.221-3.379-9.142C290.359,193.955,294.861,190.623,298.837,189.499z"/>
			<path fill="#2A9C2A" stroke="#2A9C2A" stroke-miterlimit="10" d="M233.165,230.885c2.827-0.658,5.43-1.14,7.959-1.88
				c4.385-1.282,8.908,1.29,9.657,5.704c0.081,0.475-0.285,1.112-0.608,1.554c-3.145,4.314-6.589,4.889-10.879,1.688
				C236.672,235.996,234.458,233.637,233.165,230.885z"/>
			<path fill="#2A9C2A" stroke="#2A9C2A" stroke-miterlimit="10" d="M326.846,235.906c2.252,2.103,4.32,4.103,6.463,6.02
				c3.038,2.718,3.07,8.25,0.009,10.861c-1.956,1.668-7.742-0.994-8.549-4.078C323.545,244.037,325.002,239.802,326.846,235.906z"/>
			<path fill="#2A9C2A" stroke="#2A9C2A" stroke-miterlimit="10" d="M363.238,244.786c2.192,3.631,3.602,7.627,3.12,12.096
				c-0.344,3.191-4.603,6.287-7.661,5.446c-0.87-0.239-1.581-1.478-2.13-2.398c-2.288-3.836-1.807-6.344,1.417-9.426
				C359.763,248.804,361.329,246.881,363.238,244.786z"/>
			<path fill="#2A9C2A" stroke="#2A9C2A" stroke-miterlimit="10" d="M384.408,254.916c-1.54,4.706-3.8,8.568-8.011,10.916
				c-2.481,1.384-7.138-0.111-8.405-2.725c-0.382-0.789,0.121-2.118,0.455-3.122c1.433-4.313,3.793-5.671,8.285-4.949
				c1.19,0.191,2.4,0.367,3.599,0.357C381.513,255.384,382.694,255.13,384.408,254.916z"/>
			<path fill="#2A9C2A" stroke="#2A9C2A" stroke-miterlimit="10" d="M235.62,184.995c2.08,1.932,3.786,3.727,5.705,5.255
				c3.908,3.114,4.456,7.506,1.22,11.272c-0.253,0.295-0.65,0.564-1.023,0.644c-3.277,0.7-7.194-1.561-7.899-4.75
				C232.631,192.927,233.822,188.771,235.62,184.995z"/>
			<path fill="#2A9C2A" stroke="#2A9C2A" stroke-miterlimit="10" d="M206.712,244.744c1.98,2.167,3.611,4.154,5.454,5.921
				c3.341,3.204,3.401,8.017-0.028,11.216c-0.282,0.263-0.708,0.492-1.081,0.517c-4.283,0.279-7.491-2.77-7.505-7.084
				C203.539,251.385,204.897,247.905,206.712,244.744z"/>
			<path fill="#2A9C2A" stroke="#2A9C2A" stroke-miterlimit="10" d="M201.055,219.471c3.225,0,6.119,0.084,9.006-0.02
				c3.967-0.143,8.115,4.044,7.62,7.82c-0.339,2.585-6.334,4.652-9.101,2.974C204.536,227.792,202.57,223.851,201.055,219.471z"/>
			<path fill="#2A9C2A" stroke="#2A9C2A" stroke-miterlimit="10" d="M370.869,286.93c-4.048-1.387-7.404-3.434-9.893-6.67
				c-2.354-3.061-1.453-7.968,1.838-9.777c0.707-0.389,1.977-0.023,2.892,0.282c4.629,1.541,5.871,3.889,5.218,8.681
				C370.605,281.783,370.869,284.2,370.869,286.93z"/>
			<path fill="#2A9C2A" stroke="#2A9C2A" stroke-miterlimit="10" d="M224.396,306.496c-1.429-2.639-2.647-5.079-4.038-7.416
				c-2.207-3.706-0.717-8.848,3.169-10.602c1.734-0.783,6.309,2.469,6.706,4.978c0.209,1.321,0.125,2.795-0.244,4.08
				C228.966,301.088,226.988,304.093,224.396,306.496z"/>
			<path fill="#2A9C2A" stroke="#2A9C2A" stroke-miterlimit="10" d="M200.057,289.483c-0.193-3.008-0.35-5.806-0.558-8.6
				c-0.325-4.363,2.909-7.981,7.247-8.066c1.321-0.026,4.02,3.284,4.125,5.432c0.06,1.231-0.125,2.679-0.741,3.703
				C207.756,285.889,203.98,287.997,200.057,289.483z"/>
			<path fill="#2A9C2A" stroke="#2A9C2A" stroke-miterlimit="10" d="M351.242,306.444c-3.194-2.994-5.671-6.74-6.046-11.531
				c-0.237-3.028,4.429-7.337,6.768-6.526c2.953,1.024,5.296,6.21,4.112,9.147c-0.224,0.557-0.55,1.073-0.839,1.603
				C353.933,301.526,352.625,303.915,351.242,306.444z"/>
			<path fill="#2A9C2A" stroke="#2A9C2A" stroke-miterlimit="10" d="M238.652,210.518c2.69,0.13,5.385,0.355,8.082,0.371
				c4.376,0.026,7.864,3.751,7.373,8.104c-0.057,0.501-0.495,1.062-0.914,1.402c-3.93,3.191-7.549,2.782-10.749-1.164
				C240.205,216.471,238.643,212.746,238.652,210.518z"/>
			<path fill="#2A9C2A" stroke="#2A9C2A" stroke-miterlimit="10" d="M204.805,241.752c2.255-2.061,4.351-3.91,6.373-5.838
				c3.026-2.886,8.23-2.569,10.84,0.712c1.558,1.959-1.3,7.606-4.306,8.188C212.87,245.752,208.661,244.027,204.805,241.752z"/>
			<path fill="#2A9C2A" stroke="#2A9C2A" stroke-miterlimit="10" d="M183.449,254.095c3.106-0.186,5.9-0.32,8.688-0.529
				c4.182-0.314,8.003,3.218,7.928,7.382c-0.049,2.728-6.087,5.071-9.017,3.344C187.055,261.938,184.947,258.126,183.449,254.095z"
				/>
			<path fill="#2A9C2A" stroke="#2A9C2A" stroke-miterlimit="10" d="M290.221,176.02c0.473,2.371,0.855,4.808,1.457,7.19
				c1.043,4.124-1.367,8.015-5.515,8.7c-1.498,0.247-4.476-2.951-4.623-5.211c-0.07-1.073,0.163-2.254,0.578-3.253
				C283.375,180.428,287.24,177.071,290.221,176.02z"/>
			<path fill="#2A9C2A" stroke="#2A9C2A" stroke-miterlimit="10" d="M326.248,186.908c-1.595,2.735-2.867,4.667-3.89,6.723
				c-1.905,3.831-5.788,5.172-9.562,3.159c-1.992-1.062-1.509-6.73,0.924-8.185c1.501-0.897,3.353-1.427,5.105-1.629
				C321.17,186.704,323.571,186.908,326.248,186.908z"/>
			<path fill="#2A9C2A" stroke="#2A9C2A" stroke-miterlimit="10" d="M310.914,177.046c-1.167,2.037-2.398,3.989-3.437,6.039
				c-1.828,3.609-6.308,5.01-9.667,2.92c-1.482-0.922-1.332-5.573,0.239-7.431C300.298,175.914,308.262,175.129,310.914,177.046z"/>
			<path fill="#2A9C2A" stroke="#2A9C2A" stroke-miterlimit="10" d="M276.493,162.251c1.133,2.08,2.073,4.091,3.265,5.938
				c2.429,3.764,1.626,7.715-2.173,9.989c-1.582,0.947-5.778-1.571-6.285-3.993c-0.27-1.29-0.168-2.75,0.129-4.05
				C272.124,167.093,274.396,163.801,276.493,162.251z"/>
			<path fill="#2A9C2A" stroke="#2A9C2A" stroke-miterlimit="10" d="M205.729,199.185c2.259,1.328,4.195,2.56,6.215,3.633
				c3.479,1.848,4.816,6.053,2.54,9.194c-0.562,0.775-2.246,0.949-3.435,1.012c-2.132,0.112-3.883-0.76-4.805-2.827
				C204.618,206.55,204.949,202.832,205.729,199.185z"/>
			<path fill="#2A9C2A" stroke="#2A9C2A" stroke-miterlimit="10" d="M250.158,171.647c1.047,2.207,1.822,4.096,2.809,5.867
				c1.937,3.477,1.129,6.985-2.423,8.729c-0.778,0.382-2.224-0.2-3.191-0.683c-1.84-0.919-2.874-2.512-2.605-4.646
				C245.238,177.023,247.493,174.179,250.158,171.647z"/>
			<path fill="#2A9C2A" stroke="#2A9C2A" stroke-miterlimit="10" d="M251.614,196.521c1.756,1.127,3.793,2.176,5.521,3.6
				c2.836,2.337,2.855,6.295,0.272,8.912c-1.582,1.603-6.363-0.302-7.099-3.002C249.221,202.042,250.596,198.491,251.614,196.521z"
				/>
			<path fill="#2A9C2A" stroke="#2A9C2A" stroke-miterlimit="10" d="M267.798,183.657c-0.458,2.611-0.878,4.949-1.277,7.291
				c-0.553,3.253-4.286,5.598-7.474,4.684c-2.225-0.638-2.923-5.899-0.918-7.928C260.805,184.997,264.26,184.1,267.798,183.657z"/>
			<path fill="#2A9C2A" stroke="#2A9C2A" stroke-miterlimit="10" d="M359.067,215.755c-0.692,2.259-1.348,4.274-1.926,6.312
				c-0.856,3.014-4.327,5.002-7.075,3.661c-0.883-0.431-1.681-2.101-1.617-3.149c0.09-1.468,0.636-3.326,1.673-4.236
				C352.604,216.167,355.82,215.71,359.067,215.755z"/>
			<path fill="#2A9C2A" stroke="#2A9C2A" stroke-miterlimit="10" d="M316.419,206.427c-1.194,1.66-2.335,3.505-3.734,5.128
				c-2.012,2.333-6.142,2.386-7.957-0.039c-0.583-0.779-0.517-2.629,0.025-3.521c0.765-1.261,2.11-2.67,3.45-2.985
				C311.474,204.24,314.554,205.379,316.419,206.427z"/>
			<path fill="#2A9C2A" stroke="#2A9C2A" stroke-miterlimit="10" d="M230.764,199.545c0.31,2.351,0.608,4.45,0.86,6.554
				c0.327,2.734-2.561,5.906-5.127,5.661c-2.017-0.192-3.732-4.242-2.598-6.406C225.405,202.482,227.979,200.861,230.764,199.545z"
				/>
			<path fill="#2A9C2A" stroke="#2A9C2A" stroke-miterlimit="10" d="M337.48,179.798c0.285,2.162,0.496,4.023,0.782,5.873
				c0.487,3.156-1.197,5.68-4.401,6.085c-0.756,0.096-1.804-0.671-2.432-1.318c-1.275-1.313-1.817-2.928-0.905-4.718
				C332.007,182.813,334.548,181.175,337.48,179.798z"/>
			<path fill="#2A9C2A" stroke="#2A9C2A" stroke-miterlimit="10" d="M334.821,200.066c-0.993,2.804-1.678,5.35-2.82,7.671
				c-0.488,0.993-1.861,1.987-2.953,2.147c-1.761,0.258-4.035,0.322-4.665-1.979c-0.757-2.765,0.872-5.486,3.349-6.142
				C329.787,201.219,331.868,200.768,334.821,200.066z"/>
			<path fill="#2A9C2A" stroke="#2A9C2A" stroke-miterlimit="10" d="M330.617,223.322c1.795,0.956,3.611,1.899,5.404,2.883
				c2.409,1.322,3.333,4.942,1.869,7.224c-1.211,1.889-5.528,1.101-6.864-1.253C329.786,229.991,329.624,225.779,330.617,223.322z"
				/>
			<path fill="#2A9C2A" stroke="#2A9C2A" stroke-miterlimit="10" d="M359.577,243.841c-2.881,0.72-5.389,1.652-7.964,1.91
				c-2.956,0.296-5.298-2.188-4.847-5.06c0.149-0.947,1.528-1.892,2.552-2.467c1.733-0.974,3.495-0.735,5.003,0.686
				C355.868,240.368,357.423,241.821,359.577,243.841z"/>
			<path fill="#2A9C2A" stroke="#2A9C2A" stroke-miterlimit="10" d="M220.335,210.697c1.345,1.539,2.538,2.996,3.83,4.36
				c2.244,2.367,2.261,5.71-0.295,7.742c-0.63,0.5-2.065,0.254-3.038-0.002c-1.845-0.485-2.96-1.817-3.043-3.76
				C217.657,215.921,218.683,213.152,220.335,210.697z"/>
			<path fill="#2A9C2A" stroke="#2A9C2A" stroke-miterlimit="10" d="M380.38,236.974c-0.945,2.716-1.596,5.301-2.765,7.625
				c-0.526,1.047-2.014,2.04-3.195,2.224c-1.664,0.258-3.867,0.274-4.399-2.009c-0.688-2.953,0.821-5.489,3.356-6.143
				C375.445,238.136,377.527,237.662,380.38,236.974z"/>
			<path fill="#2A9C2A" stroke="#2A9C2A" stroke-miterlimit="10" d="M209.35,313.312c-0.812-1.936-1.477-3.69-2.272-5.382
				c-1.391-2.959-0.361-6.199,2.648-7.236c0.783-0.27,2.343,0.289,2.857,0.98c0.893,1.201,1.867,2.875,1.705,4.219
				C213.914,309.005,211.802,311.285,209.35,313.312z"/>
			<path fill="#2A9C2A" stroke="#2A9C2A" stroke-miterlimit="10" d="M385.062,274.273c-2.644,1.816-5.6,2.692-8.86,2.231
				c-2.377-0.336-3.255-2.254-3.398-4.275c-0.061-0.872,0.812-2.127,1.621-2.678c1.815-1.237,3.87-1.523,5.708,0.1
				C381.776,271.103,383.336,272.647,385.062,274.273z"/>
			<path fill="#2A9C2A" stroke="#2A9C2A" stroke-miterlimit="10" d="M292.349,224.309c1.447,1.649,2.565,3.051,3.817,4.321
				c1.638,1.66,2.295,3.538,1.099,5.602c-0.611,1.054-1.794,2.575-2.649,2.531c-2.123-0.109-4.364-0.877-4.705-3.574
				C289.494,229.886,290.548,226.975,292.349,224.309z"/>
			<path fill="#2A9C2A" stroke="#2A9C2A" stroke-miterlimit="10" d="M374.622,299.894c-3.031-0.44-5.712-0.53-8.201-1.271
				c-2.786-0.829-4.012-4.089-2.504-6.507c0.505-0.809,2.284-1.4,3.288-1.186c1.514,0.323,3.269,1.122,4.176,2.295
				C372.692,294.92,373.334,297.13,374.622,299.894z"/>
			<path fill="#2A9C2A" stroke="#2A9C2A" stroke-miterlimit="10" d="M237.695,218.005c-0.589,1.945-1.179,3.903-1.775,5.86
				c-0.839,2.756-4.479,4.452-6.93,3.232c-1.923-0.957-1.731-5.426,0.304-7.082C231.237,218.433,234.969,217.563,237.695,218.005z"
				/>
			<path fill="#2A9C2A" stroke="#2A9C2A" stroke-miterlimit="10" d="M192.348,301.582c0.956-2.038,1.783-3.726,2.545-5.444
				c1.236-2.785,4.533-4.112,7.107-2.548c0.716,0.435,1.297,1.968,1.111,2.815c-0.321,1.46-0.942,3.325-2.062,4.043
				C198.447,302.115,195.384,302.286,192.348,301.582z"/>
			<path fill="#2A9C2A" stroke="#2A9C2A" stroke-miterlimit="10" d="M187.046,240.518c2.048,0.483,3.957,0.935,5.868,1.383
				c2.837,0.666,4.934,4.069,3.742,6.589c-0.395,0.835-1.943,1.585-2.944,1.56c-1.4-0.035-3.084-0.485-4.105-1.377
				C187.743,247.044,186.948,243.692,187.046,240.518z"/>
			<path fill="#2A9C2A" stroke="#2A9C2A" stroke-miterlimit="10" d="M362.196,313.732c-1.588-2.295-3.212-4.194-4.319-6.357
				c-1.337-2.613-0.649-4.334,1.602-6.055c1.273-0.973,2.315-1.158,3.628-0.015c2.344,2.04,2.875,3.776,1.719,6.357
				C364.023,309.451,363.265,311.259,362.196,313.732z"/>
			<path fill="#2A9C2A" stroke="#2A9C2A" stroke-miterlimit="10" d="M357.02,194.922c-0.334,2.329-0.62,4.438-0.941,6.54
				c-0.403,2.64-3.812,4.78-6.291,3.97c-1.973-0.644-2.656-4.992-0.938-6.811C351.07,196.272,353.934,195.257,357.02,194.922z"/>
			<path fill="#2A9C2A" stroke="#2A9C2A" stroke-miterlimit="10" d="M181.057,274.027c1.383-1.303,2.796-2.55,4.111-3.893
				c1.599-1.633,3.462-2.04,5.42-1.005c1.032,0.546,2.637,1.801,2.504,2.413c-0.356,1.631-1.16,3.565-2.432,4.506
				C188.416,277.706,182.83,276.165,181.057,274.027z"/>
			<path fill="#2A9C2A" stroke="#2A9C2A" stroke-miterlimit="10" d="M369.711,230.996c-1.747,1.562-3.251,2.916-4.766,4.258
				c-2.137,1.892-6.064,1.479-7.593-0.791c-1.105-1.641,1.155-5.505,3.551-5.844C364.123,228.164,366.969,229.281,369.711,230.996z"
				/>
			<path fill="#2A9C2A" stroke="#2A9C2A" stroke-miterlimit="10" d="M219.427,184.463c1.97,0.997,3.613,1.876,5.298,2.67
				c2.779,1.31,4.044,4.434,2.525,7.079c-0.412,0.717-1.796,1.063-2.791,1.219c-1.866,0.293-3.401-0.437-4.25-2.206
				C218.858,190.411,218.878,187.478,219.427,184.463z"/>
			<path fill="#2A9C2A" stroke="#2A9C2A" stroke-miterlimit="10" d="M272.8,180.741c1.613,0.95,3.211,1.926,4.841,2.844
				c2.553,1.439,3.557,4.606,1.963,7.089c-0.421,0.655-1.832,1.224-2.557,1.017c-1.454-0.414-3.613-1.124-3.941-2.186
				c-0.852-2.766-0.871-5.788-1.223-8.708C272.189,180.779,272.494,180.76,272.8,180.741z"/>
			<path fill="#2A9C2A" stroke="#2A9C2A" stroke-miterlimit="10" d="M375.97,221.123c-2.301,1.108-3.557,2.004-4.94,2.297
				c-1.388,0.294-3.068,0.362-4.305-0.185c-0.841-0.372-1.757-2.118-1.55-2.992c0.407-1.721,1.889-3.265,3.847-2.618
				C371.279,218.371,373.326,219.755,375.97,221.123z"/>
			<path fill="#2A9C2A" stroke="#2A9C2A" stroke-miterlimit="10" d="M308.274,192.862c0.196,2.345,0.481,3.791,0.384,5.21
				c-0.076,1.115-0.301,2.634-1.045,3.186c-0.971,0.72-2.924,1.308-3.731,0.801c-1.577-0.991-2.307-3.038-0.852-4.701
				C304.446,195.741,306.307,194.514,308.274,192.862z"/>
			<path fill="#2A9C2A" stroke="#2A9C2A" stroke-miterlimit="10" d="M310.092,216.469c0.105,1.544,0.423,3.114,0.245,4.624
				c-0.137,1.161-0.619,2.606-1.463,3.266c-0.785,0.615-2.574,0.869-3.347,0.378c-1.427-0.906-2.223-2.759-0.988-4.283
				c1.397-1.725,3.264-3.069,4.927-4.579C309.674,216.073,309.883,216.271,310.092,216.469z"/>
		</g>
		<g>
			<path fill="#EA6834" d="M506.136,221.209c-10.89,1.26-48.572,7.108-59.179,9.778c-126.745,199.579-312.858,25.389-341.893-3.835
				c-7.813-3.021-15.597-6.118-23.381-9.233c-6.136-2.462-12.277-3.858-10.809-2.295c15.73,16.648,24.294,41.046,37.647,59.635
				c8.779,12.226,17.642,24.385,26.724,36.383c12.813,16.951,26.592,33.069,42.861,46.876c14.83,12.576,31.184,22.387,50.02,27.804
				c12.036,3.456,24.376,4.157,36.772,4.337c19.707,0.294,39.348-0.919,58.903-3.419c15.123-1.941,29.253-6.676,42.302-14.631
				c12.898-7.86,24.11-17.747,34.471-28.647c13.675-14.404,25.531-30.285,37.605-45.995c9.167-11.932,18.286-23.931,28.05-35.361
				C480.14,246.309,518.371,219.798,506.136,221.209z M237.757,358.026c-3.504-0.227-7.42,2.495-10.531,0.849
				c-22.428-11.864-41.384-13.776-57.691-29.004c-16.667-15.55-30.133-33.59-41.081-53.552c-0.606-1.089-1.118-2.235-1.667-3.362
				c0.142-0.133,0.284-0.275,0.426-0.407c1.136,0.985,2.415,1.847,3.381,2.983c4.091,4.849,8.144,9.735,12.122,14.688
				c10.673,13.286,22.046,25.891,35.133,36.904c9.801,8.258,21.071,13.807,32.804,18.57c7.169,2.907,14.423,5.597,21.601,8.466
				c2.008,0.814,3.883,1.941,5.824,2.926C237.965,357.401,237.861,357.713,237.757,358.026z"/>
			<path fill="#EA6834" d="M456.77,228.733c-18.189,0.025-35.171-4.605-51.478-12.294c-12.332-5.815-24.68-11.616-37.7-15.797
				c-16.249-5.217-32.893-8.505-49.846-10.359c-17.606-1.926-35.241-2.216-52.891-0.974c-34.052,2.396-66.979,9.77-98.631,22.655
				c-15.194,6.185-30.882,10.462-47.27,11.786c-15.996,1.293-31.584-0.209-46.156-7.656c-3.821-1.953-4.169-3.493-0.864-6.078
				c16.324-12.766,28.313-29.178,39.429-46.362c7.793-12.046,15.518-24.144,24.854-35.106
				c14.009-16.447,31.306-27.423,52.365-32.752c17.906-4.531,34.534-1.906,50.117,7.563c8.454,5.137,16.496,10.947,24.843,16.268
				c3.83,2.441,7.759,4.935,11.975,6.521c7.73,2.907,15.373,1.435,22.718-1.933c6.862-3.147,12.869-7.621,18.875-12.106
				c5.239-3.912,10.417-7.918,15.807-11.614c9.544-6.544,20.103-9.914,31.768-9.17c10.153,0.648,19.435,4.116,28.151,9.185
				c14.535,8.454,26.611,19.789,36.906,32.911c9.714,12.383,18.794,25.263,28.142,37.933c7.888,10.692,16.012,21.184,25.685,30.362
				c6.72,6.376,14.075,11.834,22.513,15.787c1.195,0.56,2.037,1.874,3.042,2.839c-1.1,0.861-2.085,2.202-3.32,2.498
				c-5.231,1.254-10.493,2.606-15.823,3.168C478.939,227.17,467.844,227.853,456.77,228.733z M227.454,120.921
				c0.075-0.132,0.151-0.265,0.226-0.397c-0.912-0.602-1.782-1.283-2.743-1.792c-6.618-3.506-13.682-5.677-21.035-6.991
				c-8.967-1.603-17.483-0.289-25.383,4.21c-3.737,2.128-7.393,4.493-10.759,7.163c-11.738,9.309-21.977,20.181-31.905,31.344
				c-6.587,7.407-12.927,15.02-18.154,23.484c-0.541,0.877-0.988,1.812-1.478,2.72c0.122,0.101,0.245,0.202,0.367,0.302
				c0.65-0.451,1.357-0.837,1.94-1.362c4.056-3.657,8.149-7.277,12.115-11.03c12.963-12.271,25.808-24.666,38.857-36.844
				c3.128-2.919,6.648-5.57,10.366-7.677c11.394-6.455,23.661-8.031,36.469-5.533C220.057,119.242,223.749,120.115,227.454,120.921z
				"/>
		</g>
	</g>
	<path d="M-19.528-636.094c-0.065,0.147-0.081,0.245-0.147,0.302c-0.57,0.587-1.125,1.182-1.662,1.793h-281.219
		c-0.595-0.668-1.222-1.336-1.874-2.062c1.956-0.147,3.781-0.228,5.59-0.424c8.174-0.913,15.435-3.993,21.897-9.087
		c5.411-4.262,9.869-9.38,13.805-14.97c2.958-4.205,5.802-8.5,8.687-12.77c3.358-4.979,6.862-9.828,11.059-14.147
		c4.637-4.776,9.885-8.695,15.908-11.523c5.199-2.428,10.651-4.009,16.339-4.824c4.172-0.595,8.369-0.766,12.574-0.554
		c8.06,0.407,15.793,2.16,23.03,5.851c4.042,2.062,7.701,4.653,10.659,8.125c0.97,1.133,1.777,2.412,2.649,3.626
		c0.073,0.098,0.155,0.196,0.293,0.367c0.106-0.138,0.187-0.22,0.244-0.318c2.282-3.822,5.419-6.821,9.087-9.29
		c4.93-3.317,10.366-5.436,16.111-6.805c6.039-1.434,12.167-1.899,18.344-1.532c9.518,0.554,18.483,3.032,26.673,8.027
		c5.998,3.651,11.01,8.41,15.402,13.854c3.569,4.425,6.666,9.176,9.787,13.903c3.292,4.979,6.691,9.877,10.529,14.457
		c3.097,3.692,6.601,6.943,10.48,9.779c6.055,4.417,12.827,7.025,20.267,7.832c1.654,0.179,3.317,0.228,4.971,0.342
		C-19.887-636.135-19.732-636.111-19.528-636.094z"/>
	<path fill="#FFFFFF" d="M9.23-1222.59c-0.48,0.49-0.76,0.8-1.06,1.07c-6.67,6.14-13.9,11.55-21.61,16.3
		c-16.1,9.93-33.43,16.85-51.79,21.25c-7.82,1.88-15.75,3.15-23.74,4.06c-2.5,0.28-4.94,0.02-7.4-0.26
		c-7.91-0.92-15.73-2.31-23.45-4.26c-21.03-5.29-40.6-13.79-58.32-26.38c-4.6-3.27-8.98-6.82-13.14-10.64
		c-0.26-0.24-0.52-0.49-0.78-0.74c-0.04-0.05-0.04-0.14-0.1-0.33c2.19-0.09,4.31-0.18,6.42-0.28c6.6-0.3,13.17-0.9,19.69-1.9
		c8.21-1.27,16.4-2.68,24.6-4.05c5.34-0.89,10.7-1.41,16.12-1.04c5.11,0.36,10.04,1.51,14.66,3.76c3.12,1.52,6.17,3.19,9.24,4.83
		c2.82,1.5,5.68,2.93,8.74,3.92c0.76,0.24,1.45,0.24,2.21-0.01c2.63-0.85,5.13-2.01,7.57-3.3c3.11-1.65,6.19-3.35,9.33-4.94
		c6.6-3.34,13.65-4.57,21.02-4.35c4.97,0.14,9.86,0.94,14.73,1.84c8.73,1.61,17.48,3.05,26.3,4.06c6.48,0.74,12.97,1.26,19.49,1.39
		C8.27-1222.58,8.59-1222.59,9.23-1222.59z"/>
	<path d="M74.5-1224c-0.71,0.93-1.41,1.88-2.1,2.82c-10.21,13.89-19.66,28.3-28.87,42.87c-2.65,4.19-5.3,8.38-7.85,12.63
		c-5.25,8.78-11.34,16.94-18.03,24.66c-8.82,10.17-18.71,19.16-29.89,26.7c-14.91,10.05-31.17,16.83-48.79,20.4
		c-9.59,1.94-19.28,2.88-29.06,2.97c-15.58,0.13-30.86-1.83-45.76-6.48c-18.04-5.64-34.12-14.79-48.39-27.14
		c-12.78-11.05-23.5-23.87-32.44-38.17c-11.04-17.66-22.28-35.2-34.35-52.19c-2.16-3.05-4.35-6.09-6.62-9.07h86.52
		c-4.85,0.59-9.72,0.98-14.61,1.2c-2.11,0.1-4.23,0.19-6.42,0.28c0.06,0.19,0.06,0.28,0.1,0.33c0.26,0.25,0.52,0.5,0.78,0.74
		c4.16,3.82,8.54,7.37,13.14,10.64c17.72,12.59,37.29,21.09,58.32,26.38c7.72,1.95,15.54,3.34,23.45,4.26
		c2.46,0.28,4.9,0.54,7.4,0.26c7.99-0.91,15.92-2.18,23.74-4.06c18.36-4.4,35.69-11.32,51.79-21.25
		c7.71-4.75,14.94-10.16,21.61-16.3c0.3-0.27,0.58-0.58,1.06-1.07c-0.64,0-0.96,0.01-1.27,0c-6.52-0.13-13.01-0.65-19.49-1.39
		c-0.05-0.01-0.11-0.01-0.16-0.02H74.5z"/>
	<path d="M160-1742v262h-474v-262h39.87c0.26,0.28,0.5,0.57,0.75,0.85c4.41,5.18,8.42,10.68,12.35,16.22
		c12.07,16.99,23.31,34.53,34.35,52.19c8.94,14.3,19.66,27.12,32.44,38.17c14.27,12.35,30.35,21.5,48.39,27.14
		c14.9,4.65,30.18,6.61,45.76,6.48c9.78-0.09,19.47-1.03,29.06-2.97c17.62-3.57,33.88-10.35,48.79-20.4
		c11.18-7.54,21.07-16.53,29.89-26.7c6.69-7.72,12.78-15.88,18.03-24.66c2.55-4.25,5.2-8.44,7.85-12.63
		c9.21-14.57,18.66-28.98,28.87-42.87c2.73-3.71,5.48-7.39,8.55-10.82H160z"/>
	<g>
		<path fill="#E5743D" d="M-134.63-913.29c-0.093,0.007-0.186,0.009-0.279,0.019c-3.013,0.3-6.027,0.568-9.035,0.915
			c-2.677,0.31-5.331,0.75-7.939,1.406c-31.159,49.064-76.913,6.242-84.05-0.943c-1.921-0.743-3.834-1.504-5.748-2.27
			c-1.509-0.605-3.082-0.903-4.712-0.826c-0.521,0.023-0.594,0.161-0.293,0.596c0.298,0.438,0.612,0.873,0.973,1.257
			c3.867,4.093,7.347,8.5,10.63,13.07c2.158,3.005,4.337,5.995,6.57,8.944c3.15,4.167,6.537,8.13,10.537,11.524
			c3.646,3.092,7.666,5.504,12.297,6.835c2.959,0.85,5.992,1.022,9.04,1.066c4.845,0.072,9.673-0.226,14.481-0.84
			c3.718-0.477,7.191-1.641,10.4-3.597c3.171-1.932,5.927-4.363,8.474-7.042c3.362-3.541,6.276-7.445,9.245-11.307
			c2.254-2.933,4.496-5.883,6.896-8.693c3.42-4.007,7.662-7.042,12.134-9.771c0.14-0.086,0.279-0.179,0.419-0.268
			C-134.607-913.241-134.619-913.264-134.63-913.29z M-203.313-879.719c-0.861-0.056-1.725-0.116-2.589-0.165
			c-5.646-0.324-10.174-3.013-14.183-6.756c-4.097-3.823-7.408-8.258-10.099-13.165c-0.149-0.268-0.275-0.549-0.41-0.826
			c0.035-0.033,0.07-0.068,0.105-0.1c0.279,0.242,0.594,0.454,0.831,0.733c1.006,1.192,2.002,2.393,2.98,3.611
			c2.624,3.266,5.42,6.365,8.637,9.073c2.41,2.03,5.18,3.394,8.064,4.565c1.762,0.715,3.546,1.376,5.31,2.081
			c0.494,0.2,0.954,0.477,1.432,0.719C-203.262-879.873-203.288-879.796-203.313-879.719z"/>
		<path fill="#E5743D" d="M-149.471-911.504c-4.472,0.006-8.646-1.132-12.655-3.022c-3.032-1.43-6.067-2.856-9.268-3.884
			c-3.995-1.283-8.086-2.091-12.254-2.547c-4.328-0.473-8.664-0.545-13.003-0.239c-8.371,0.589-16.466,2.402-24.247,5.569
			c-3.735,1.521-7.592,2.572-11.621,2.898c-3.932,0.318-7.764-0.051-11.347-1.882c-0.939-0.48-1.025-0.859-0.212-1.494
			c4.013-3.138,6.96-7.173,9.693-11.398c1.916-2.961,3.815-5.935,6.11-8.63c3.444-4.043,7.696-6.742,12.873-8.052
			c4.402-1.114,8.49-0.468,12.321,1.859c2.078,1.263,4.055,2.691,6.107,3.999c0.942,0.6,1.907,1.213,2.944,1.603
			c1.9,0.715,3.779,0.353,5.585-0.475c1.687-0.773,3.164-1.874,4.64-2.976c1.288-0.962,2.561-1.947,3.886-2.855
			c2.346-1.609,4.942-2.437,7.81-2.254c2.496,0.159,4.778,1.012,6.921,2.258c3.573,2.078,6.542,4.865,9.073,8.091
			c2.388,3.044,4.62,6.211,6.918,9.325c1.939,2.628,3.936,5.208,6.314,7.464c1.652,1.568,3.46,2.909,5.535,3.881
			c0.294,0.138,0.501,0.461,0.748,0.698c-0.27,0.212-0.513,0.541-0.816,0.614c-1.286,0.308-2.58,0.641-3.89,0.779
			C-144.021-911.888-146.749-911.721-149.471-911.504z M-205.846-938.009c0.019-0.033,0.037-0.065,0.056-0.098
			c-0.224-0.148-0.438-0.315-0.674-0.441c-1.627-0.862-3.364-1.396-5.171-1.719c-2.204-0.394-4.298-0.071-6.24,1.035
			c-0.919,0.523-1.817,1.105-2.645,1.761c-2.886,2.288-5.403,4.961-7.843,7.706c-1.619,1.821-3.178,3.693-4.463,5.773
			c-0.133,0.215-0.243,0.445-0.363,0.669c0.03,0.025,0.06,0.05,0.09,0.074c0.16-0.111,0.334-0.206,0.477-0.335
			c0.997-0.899,2.003-1.789,2.978-2.712c3.187-3.017,6.345-6.064,9.553-9.058c0.769-0.718,1.634-1.369,2.548-1.887
			c2.801-1.587,5.817-1.974,8.966-1.36C-207.664-938.421-206.757-938.207-205.846-938.009z"/>
	</g>
	
		<text transform="matrix(1 0 0 1 549.6742 322.1073)" fill="#0F0F0F" font-family="'QuicksandBold-Regular'" font-size="245.1578" letter-spacing="2">OJWOCEIN</text>
</g>
</svg>
